<?xml version="1.0" standalone="no"?>
<!DOCTYPE svg PUBLIC "-//W3C//DTD SVG 20010904//EN"
 "http://www.w3.org/TR/2001/REC-SVG-20010904/DTD/svg10.dtd">
<svg version="1.0" xmlns="http://www.w3.org/2000/svg"
 width="338.000000pt" height="489.000000pt" viewBox="0 0 338.000000 489.000000"
 preserveAspectRatio="xMidYMid meet">

<g transform="translate(0.000000,489.000000) scale(0.100000,-0.100000)"
fill="#000000" stroke="none">
<path d="M88 4870 c-20 -11 -47 -34 -60 -52 l-23 -33 -3 -2328 c-2 -2595 -9
-2368 66 -2425 l35 -27 1586 0 1586 0 33 23 c18 13 41 41 52 63 20 38 20 62
18 2366 l-3 2328 -23 33 c-13 18 -41 41 -62 52 -39 20 -64 20 -1602 20 -1527
-1 -1564 -1 -1600 -20z m3182 -45 c65 -33 60 155 60 -2380 0 -2042 -2 -2309
-15 -2335 -33 -64 79 -60 -1625 -60 -1704 0 -1592 -4 -1625 60 -13 26 -15 293
-15 2335 0 2039 2 2309 15 2335 33 63 -80 59 1623 60 1369 0 1556 -2 1582 -15z"/>
<path d="M187 4712 c-16 -17 -17 -189 -17 -2268 0 -1928 2 -2253 14 -2270 14
-19 42 -19 1478 -22 805 -1 1478 0 1496 3 67 12 62 -157 60 2304 -3 2176 -3
2229 -22 2250 l-19 21 -1487 0 c-1428 0 -1488 -1 -1503 -18z m2899 -105 l24
-28 0 -2138 0 -2138 -25 -27 -24 -26 -1368 0 c-1060 1 -1372 3 -1384 13 -9 7
-21 22 -27 34 -9 16 -12 551 -12 2150 0 1939 1 2131 16 2151 9 13 26 27 38 32
11 5 627 8 1379 7 l1359 -2 24 -28z"/>
<path d="M316 4584 c-14 -14 -16 -233 -16 -2140 0 -2111 0 -2124 20 -2144 20
-20 33 -20 1370 -20 1337 0 1350 0 1370 20 20 20 20 33 20 2144 0 1902 -2
2126 -15 2140 -14 14 -163 15 -1375 16 -1215 0 -1361 -2 -1374 -16z m184 -34
c19 -35 10 -45 -10 -12 -15 24 -27 32 -49 32 -42 0 -57 -23 -27 -40 13 -7 28
-22 34 -34 9 -20 10 -20 18 -2 10 25 -9 52 -35 49 -13 -2 -20 1 -16 7 8 14 38
13 53 -2 20 -20 14 -48 -19 -89 -35 -45 -69 -51 -93 -17 -14 20 -14 25 -1 45
22 32 18 42 -5 14 -11 -13 -20 -30 -20 -39 0 -20 29 -52 47 -52 7 0 13 -4 13
-10 0 -17 -20 -11 -45 15 -37 36 -32 68 18 118 23 25 49 46 57 49 22 7 69 -12
80 -32z m475 30 c3 -6 -1 -7 -9 -4 -18 7 -21 14 -7 14 6 0 13 -4 16 -10z m465
0 c-8 -5 -19 -10 -25 -10 -5 0 -3 5 5 10 8 5 20 10 25 10 6 0 3 -5 -5 -10z
m530 -5 c-14 -8 -29 -14 -35 -14 -5 0 1 6 15 14 14 8 30 14 35 14 6 0 -1 -6
-15 -14z m99 2 c6 -8 7 -17 3 -22 -4 -4 7 -5 23 -1 17 4 46 9 65 11 33 4 24 1
-27 -11 -39 -8 -26 -25 15 -19 33 5 31 1 -7 -11 -11 -3 -10 -9 3 -29 9 -13 16
-30 16 -37 0 -7 -10 2 -22 20 -17 28 -25 32 -47 28 -21 -5 -23 -4 -8 4 24 15
21 29 -5 22 -14 -3 -19 -2 -14 6 4 7 1 12 -6 12 -10 0 -10 2 1 9 11 7 10 11
-5 20 -11 6 -14 11 -8 11 6 0 17 -6 23 -13z m536 3 c3 -6 -1 -7 -9 -4 -18 7
-21 14 -7 14 6 0 13 -4 16 -10z m412 -44 c48 -45 57 -91 26 -118 -24 -20 -53
-30 -53 -18 0 6 9 10 20 10 12 0 25 10 31 24 13 27 5 76 -12 76 -6 0 -6 -7 1
-20 15 -28 3 -59 -25 -66 -37 -9 -105 48 -105 87 0 38 36 57 71 38 22 -11 23
-11 10 4 -25 31 -77 19 -92 -21 -5 -14 -12 -22 -16 -18 -12 11 20 55 46 64 35
12 48 6 98 -42z m-2313 14 c13 -24 23 -30 39 -26 12 3 16 3 10 0 -16 -7 -17
-24 -2 -24 6 0 16 -6 23 -13 10 -10 4 -13 -33 -13 -36 -1 -41 0 -23 7 13 5 21
13 17 19 -4 6 -15 6 -31 0 -14 -6 -41 -10 -60 -10 -47 0 -34 -20 14 -22 l37
-1 -33 -4 c-38 -5 -64 13 -88 59 -18 35 -8 36 18 3 14 -18 29 -25 53 -25 60 0
66 7 43 46 -11 19 -16 34 -11 34 5 0 17 -14 27 -30z m166 20 c-8 -5 -19 -10
-25 -10 -5 0 -3 5 5 10 8 5 20 10 25 10 6 0 3 -5 -5 -10z m406 -62 c1 -5 2
-10 3 -13 0 -3 17 2 37 10 50 21 55 19 16 -5 -30 -18 -32 -23 -21 -38 12 -15
11 -15 -7 1 -12 9 -27 16 -35 14 -8 -2 -11 -2 -6 0 4 3 7 9 7 15 0 10 -51 5
-86 -9 -9 -3 -19 6 -29 28 -13 29 -15 30 -12 9 1 -14 6 -32 10 -40 5 -8 -5 0
-22 19 -17 19 -28 37 -26 40 14 14 48 5 62 -16 15 -23 37 -29 67 -17 14 5 14
9 1 34 -8 16 -15 33 -15 37 0 9 54 -58 56 -69z m294 49 c10 3 9 0 -3 -7 -19
-12 -14 -32 6 -25 11 4 25 -17 45 -65 3 -8 -13 5 -37 30 -23 25 -47 44 -53 42
-8 -2 -8 1 0 11 9 10 9 17 -1 27 -7 8 -3 8 8 -1 11 -9 27 -14 35 -12z m269
-27 c13 6 25 9 28 7 2 -3 -5 -8 -16 -12 -12 -3 -21 -10 -21 -13 0 -4 -11 -9
-26 -10 -14 -1 -23 2 -19 8 3 6 -1 20 -9 32 -27 38 -17 45 13 9 25 -30 30 -32
50 -21z m495 20 c14 -24 22 -29 39 -24 19 6 20 5 6 -9 -16 -15 -100 -34 -129
-28 -10 2 -12 -1 -5 -7 6 -6 26 -12 45 -15 l35 -4 -37 -1 c-31 -2 -41 4 -67
35 -37 45 -39 57 -8 48 21 -6 21 -6 3 9 -11 9 -15 16 -8 16 6 0 24 -16 39 -35
27 -34 46 -41 76 -29 13 5 13 10 -5 40 -11 19 -16 34 -11 34 5 0 17 -14 27
-30z m166 20 c-8 -5 -19 -10 -25 -10 -5 0 -3 5 5 10 8 5 20 10 25 10 6 0 3 -5
-5 -10z m-1423 -6 c-3 -3 -12 -4 -19 -1 -8 3 -5 6 6 6 11 1 17 -2 13 -5z m313
-4 c-8 -5 -19 -10 -25 -10 -5 0 -3 5 5 10 8 5 20 10 25 10 6 0 3 -5 -5 -10z
m107 4 c-3 -3 -12 -4 -19 -1 -8 3 -5 6 6 6 11 1 17 -2 13 -5z m120 0 c-3 -3
-12 -4 -19 -1 -8 3 -5 6 6 6 11 1 17 -2 13 -5z m46 -1 c-7 -2 -19 -2 -25 0 -7
3 -2 5 12 5 14 0 19 -2 13 -5z m996 -6 c10 3 9 0 -4 -8 -11 -7 -24 -14 -30
-15 -5 -1 -19 -5 -30 -9 -19 -6 -19 -6 -1 5 15 10 16 14 5 22 -10 6 -7 7 10 3
18 -6 22 -4 16 6 -6 11 -5 11 5 2 7 -6 20 -9 29 -6z m48 7 c-3 -3 -12 -4 -19
-1 -8 3 -5 6 6 6 11 1 17 -2 13 -5z m-1897 -19 c-14 -8 -29 -14 -35 -14 -5 0
1 6 15 14 14 8 30 14 35 14 6 0 -1 -6 -15 -14z m212 0 c-9 -7 -30 -15 -47 -19
-25 -5 -27 -4 -11 5 12 7 15 14 7 18 -6 4 7 7 29 7 33 0 37 -1 22 -11z m428 5
c-8 -5 -19 -10 -25 -10 -5 0 -3 5 5 10 8 5 20 10 25 10 6 0 3 -5 -5 -10z m265
-30 c3 -11 17 -20 33 -22 l27 -3 -27 -6 c-33 -7 -49 1 -51 29 0 11 -5 18 -9
16 -9 -6 -6 -33 5 -51 5 -7 6 -13 2 -13 -7 0 -45 62 -45 73 0 5 10 5 21 2 16
-6 20 -4 13 6 -7 12 -5 12 9 1 9 -8 19 -22 22 -32z m195 30 c-8 -5 -19 -10
-25 -10 -5 0 -3 5 5 10 8 5 20 10 25 10 6 0 3 -5 -5 -10z m530 -5 c-14 -8 -29
-14 -35 -14 -5 0 1 6 15 14 14 8 30 14 35 14 6 0 -1 -6 -15 -14z m-1560 -5
c-8 -5 -19 -10 -25 -10 -5 0 -3 5 5 10 8 5 20 10 25 10 6 0 3 -5 -5 -10z m450
-5 c-14 -8 -29 -14 -35 -14 -5 0 1 6 15 14 14 8 30 14 35 14 6 0 -1 -6 -15
-14z m640 5 c-8 -5 -19 -10 -25 -10 -5 0 -3 5 5 10 8 5 20 10 25 10 6 0 3 -5
-5 -10z m540 0 c-8 -5 -19 -10 -25 -10 -5 0 -3 5 5 10 8 5 20 10 25 10 6 0 3
-5 -5 -10z m-1462 -18 c-1 -4 6 -22 15 -39 10 -18 13 -33 7 -33 -5 0 -10 5
-10 10 0 6 -11 22 -25 36 -26 26 -26 48 0 38 8 -3 14 -9 13 -12z m39 12 c-3
-3 -12 -4 -19 -1 -8 3 -5 6 6 6 11 1 17 -2 13 -5z m313 -4 c-8 -5 -19 -10 -25
-10 -5 0 -3 5 5 10 8 5 20 10 25 10 6 0 3 -5 -5 -10z m227 4 c-3 -3 -12 -4
-19 -1 -8 3 -5 6 6 6 11 1 17 -2 13 -5z m1051 -12 c-1 -4 6 -23 16 -42 l18
-35 -36 39 c-20 21 -33 42 -31 47 6 9 35 1 33 -9z m39 12 c-3 -3 -12 -4 -19
-1 -8 3 -5 6 6 6 11 1 17 -2 13 -5z m46 -1 c-7 -2 -19 -2 -25 0 -7 3 -2 5 12
5 14 0 19 -2 13 -5z m47 -42 c0 -11 -4 -10 -15 5 -8 10 -14 26 -14 34 0 11 3
10 14 -4 8 -11 15 -27 15 -35z m-1990 24 c-14 -8 -29 -14 -35 -14 -5 0 1 6 15
14 14 8 30 14 35 14 6 0 -1 -6 -15 -14z m680 5 c-8 -5 -19 -10 -25 -10 -5 0
-3 5 5 10 8 5 20 10 25 10 6 0 3 -5 -5 -10z m950 -5 c-14 -8 -29 -14 -35 -14
-5 0 1 6 15 14 14 8 30 14 35 14 6 0 -1 -6 -15 -14z m-1520 -5 c-8 -5 -19 -10
-25 -10 -5 0 -3 5 5 10 8 5 20 10 25 10 6 0 3 -5 -5 -10z m1090 0 c-8 -5 -19
-10 -25 -10 -5 0 -3 5 5 10 8 5 20 10 25 10 6 0 3 -5 -5 -10z m505 -15 c-27
-13 -57 -24 -65 -24 -8 0 10 11 40 24 71 30 90 30 25 0z m-1535 5 c-8 -5 -19
-10 -25 -10 -5 0 -3 5 5 10 8 5 20 10 25 10 6 0 3 -5 -5 -10z m460 0 c-8 -5
-19 -10 -25 -10 -5 0 -3 5 5 10 8 5 20 10 25 10 6 0 3 -5 -5 -10z m412 -6
c-12 -8 -20 -20 -17 -25 11 -17 -2 -9 -21 13 -10 12 -14 19 -9 16 6 -3 19 -2
30 3 33 13 41 10 17 -7z m758 6 c-8 -5 -19 -10 -25 -10 -5 0 -3 5 5 10 8 5 20
10 25 10 6 0 3 -5 -5 -10z m-1740 -10 c-8 -5 -19 -10 -25 -10 -5 0 -3 5 5 10
8 5 20 10 25 10 6 0 3 -5 -5 -10z m630 0 c-8 -5 -19 -10 -25 -10 -5 0 -3 5 5
10 8 5 20 10 25 10 6 0 3 -5 -5 -10z m460 0 c-8 -5 -19 -10 -25 -10 -5 0 -3 5
5 10 8 5 20 10 25 10 6 0 3 -5 -5 -10z m430 0 c0 -5 8 -10 18 -11 14 0 14 -2
-3 -9 -19 -8 -19 -8 5 -18 16 -7 19 -11 9 -11 -20 -1 -42 23 -31 34 4 4 -11 5
-33 1 -38 -6 -39 -6 -15 8 30 17 50 20 50 6z m-1470 -15 c-14 -8 -29 -14 -35
-14 -5 0 1 6 15 14 14 8 30 14 35 14 6 0 -1 -6 -15 -14z m470 5 c-8 -5 -19
-10 -25 -10 -5 0 -3 5 5 10 8 5 20 10 25 10 6 0 3 -5 -5 -10z m630 0 c-8 -5
-19 -10 -25 -10 -5 0 -3 5 5 10 8 5 20 10 25 10 6 0 3 -5 -5 -10z m530 -5
c-14 -8 -29 -14 -35 -14 -5 0 1 6 15 14 14 8 30 14 35 14 6 0 -1 -6 -15 -14z
m-1100 -5 c-8 -5 -19 -10 -25 -10 -5 0 -3 5 5 10 8 5 20 10 25 10 6 0 3 -5 -5
-10z m-232 -7 c-10 -2 -28 -2 -40 0 -13 2 -5 4 17 4 22 1 32 -1 23 -4z m540 0
c-10 -2 -28 -2 -40 0 -13 2 -5 4 17 4 22 1 32 -1 23 -4z m212 -3 c-8 -5 -19
-10 -25 -10 -5 0 -3 5 5 10 8 5 20 10 25 10 6 0 3 -5 -5 -10z m-1179 -18 c-7
-2 -18 1 -23 6 -8 8 -4 9 13 5 13 -4 18 -8 10 -11z m69 8 c-8 -5 -22 -9 -30
-9 -10 0 -8 3 5 9 27 12 43 12 25 0z m1021 -8 c-7 -2 -18 1 -23 6 -8 8 -4 9
13 5 13 -4 18 -8 10 -11z m609 8 c-8 -5 -22 -9 -30 -9 -10 0 -8 3 5 9 27 12
43 12 25 0z m-1103 -6 c-3 -3 -12 -4 -19 -1 -8 3 -5 6 6 6 11 1 17 -2 13 -5z
m1491 -2001 l-3 -1978 -1195 0 -1195 0 -3 1978 -2 1977 1200 0 1200 0 -2
-1977z m110 1924 c-22 -18 -28 -31 -28 -64 0 -49 12 -60 42 -39 37 26 45 18
10 -10 -25 -20 -31 -31 -26 -46 5 -18 4 -19 -8 -7 -8 7 -15 18 -16 24 -1 5 -5
36 -8 67 -4 32 -10 55 -15 52 -5 -3 -9 -3 -9 1 0 7 63 45 75 45 6 -1 -2 -11
-17 -23z m-2596 -14 c-15 -16 -30 -24 -33 -19 -4 4 -12 0 -18 -10 -6 -11 -11
-14 -11 -7 0 14 57 63 75 63 8 0 3 -11 -13 -27z m2535 -55 c-3 -7 -5 -2 -5 12
0 14 2 19 5 13 2 -7 2 -19 0 -25z m-2551 -46 c3 -10 12 -9 39 8 19 12 35 18
35 13 0 -5 -14 -17 -31 -27 -26 -15 -30 -22 -24 -45 6 -25 6 -25 -9 -5 -8 11
-17 38 -20 60 -5 35 -2 34 10 -4z m-16 -37 c6 -3 10 -15 10 -26 0 -11 -4 -17
-10 -14 -5 3 -10 0 -10 -7 0 -10 -2 -10 -9 1 -7 11 -11 10 -20 -5 -6 -11 -11
-14 -11 -8 0 16 25 35 34 27 4 -4 5 4 2 17 -3 14 -8 39 -11 55 l-5 30 10 -32
c6 -18 15 -35 20 -38z m2591 9 c2 3 6 -7 7 -21 2 -20 -1 -23 -11 -14 -10 8
-17 7 -27 -2 -8 -6 -7 -3 2 8 10 13 13 27 8 40 -5 11 -9 27 -9 35 0 8 6 0 13
-18 6 -18 14 -31 17 -28z m59 -79 c0 -5 -5 -3 -10 5 -5 8 -10 20 -10 25 0 6 5
3 10 -5 5 -8 10 -19 10 -25z m-16 -41 c15 -37 25 -68 23 -70 -2 -3 -13 19 -25
48 -11 29 -23 61 -27 71 -4 9 -5 17 -2 17 3 0 17 -30 31 -66z m-2564 11 c0 -5
-5 -3 -10 5 -5 8 -10 20 -10 25 0 6 5 3 10 -5 5 -8 10 -19 10 -25z m2514 -15
c5 -17 4 -20 -2 -10 -5 8 -13 26 -16 40 -5 17 -4 20 2 10 5 -8 13 -26 16 -40z
m-2637 18 c-3 -8 -6 -5 -6 6 -1 11 2 17 5 13 3 -3 4 -12 1 -19z m93 -13 c0 -5
-5 -3 -10 5 -5 8 -10 20 -10 25 0 6 5 3 10 -5 5 -8 10 -19 10 -25z m2520 -30
c0 -5 -5 -3 -10 5 -5 8 -10 20 -10 25 0 6 5 3 10 -5 5 -8 10 -19 10 -25z m120
0 c0 -5 -5 -3 -10 5 -5 8 -10 20 -10 25 0 6 5 3 10 -5 5 -8 10 -19 10 -25z
m-2701 -30 c0 -5 -6 1 -14 15 -8 14 -14 30 -14 35 0 6 6 -1 14 -15 8 -14 14
-29 14 -35z m111 20 c0 -5 -5 -3 -10 5 -5 8 -10 20 -10 25 0 6 5 3 10 -5 5 -8
10 -19 10 -25z m-80 -10 c0 -5 -5 -3 -10 5 -5 8 -10 20 -10 25 0 6 5 3 10 -5
5 -8 10 -19 10 -25z m50 0 c0 -5 -5 -3 -10 5 -5 8 -10 20 -10 25 0 6 5 3 10
-5 5 -8 10 -19 10 -25z m2550 -20 c0 -5 -5 -3 -10 5 -5 8 -10 20 -10 25 0 6 5
3 10 -5 5 -8 10 -19 10 -25z m-30 -10 c0 -5 -5 -3 -10 5 -5 8 -10 20 -10 25 0
6 5 3 10 -5 5 -8 10 -19 10 -25z m-2550 -20 c0 -5 -5 -3 -10 5 -5 8 -10 20
-10 25 0 6 5 3 10 -5 5 -8 10 -19 10 -25z m37 13 c-3 -8 -6 -5 -6 6 -1 11 2
17 5 13 3 -3 4 -12 1 -19z m-67 -23 c0 -5 -5 -3 -10 5 -5 8 -10 20 -10 25 0 6
5 3 10 -5 5 -8 10 -19 10 -25z m92 -17 c-8 -8 -9 -4 -5 13 4 13 8 18 11 10 2
-7 -1 -18 -6 -23z m2576 -6 c14 10 14 9 -1 -8 -11 -14 -15 -28 -10 -40 6 -16
5 -17 -8 -4 -9 8 -16 19 -16 25 0 5 -3 21 -7 35 l-8 25 17 -23 c14 -19 19 -21
33 -10z m-2608 8 c7 11 8 8 6 -13 -1 -15 -8 -33 -14 -39 -7 -7 -12 -19 -13
-27 0 -10 -3 -11 -5 -4 -4 8 -16 6 -42 -9 l-37 -20 34 29 c30 26 32 32 21 52
-6 13 -9 25 -7 28 3 2 8 -5 12 -16 3 -12 11 -21 16 -21 6 0 7 -5 3 -12 -4 -7
-3 -8 4 -4 8 5 8 15 2 32 -13 32 -12 43 0 24 9 -13 11 -13 20 0z m2550 -25 c0
-5 -5 -3 -10 5 -5 8 -10 20 -10 25 0 6 5 3 10 -5 5 -8 10 -19 10 -25z m18 -31
c1 -14 -2 -23 -8 -19 -6 3 -20 -1 -32 -9 -41 -29 -42 -17 -2 19 21 19 39 34
39 35 0 0 2 -11 3 -26z m39 -76 c-2 -13 -4 -5 -4 17 -1 22 1 32 4 23 2 -10 2
-28 0 -40z m-2590 -10 c-2 -13 -4 -5 -4 17 -1 22 1 32 4 23 2 -10 2 -28 0 -40z
m2556 -15 c-9 -7 -24 -13 -32 -13 -12 1 -10 5 7 19 12 11 22 30 23 43 1 20 2
19 10 -7 7 -24 5 -33 -8 -42z m-2585 -5 c-5 -10 -5 -18 -1 -18 11 -1 -37 -40
-49 -40 -5 0 -6 9 -3 20 9 27 -3 25 -15 -2 -9 -20 -10 -20 -7 -3 1 11 17 29
34 40 21 13 33 29 34 45 l1 25 7 -25 c5 -14 4 -33 -1 -42z m2592 -18 c-14 -11
-30 -24 -37 -30 -7 -5 -14 -6 -17 -2 -8 13 9 31 32 35 12 2 25 6 28 10 4 4 10
7 13 7 3 -1 -5 -10 -19 -20z m-73 -42 c-3 -7 -5 -2 -5 12 0 14 2 19 5 13 2 -7
2 -19 0 -25z m-2560 -40 c-3 -7 -5 -2 -5 12 0 14 2 19 5 13 2 -7 2 -19 0 -25z
m2590 10 c-3 -8 -6 -5 -6 6 -1 11 2 17 5 13 3 -3 4 -12 1 -19z m-30 -10 c-3
-8 -6 -5 -6 6 -1 11 2 17 5 13 3 -3 4 -12 1 -19z m79 -13 c-40 -36 -53 -44
-40 -23 4 7 3 8 -4 4 -8 -5 -10 -2 -6 9 4 9 9 14 11 11 3 -2 19 4 36 15 46 27
46 24 3 -16z m-2669 3 c-3 -8 -6 -5 -6 6 -1 11 2 17 5 13 3 -3 4 -12 1 -19z
m85 -4 c-24 -19 -31 -31 -26 -46 6 -19 5 -19 -13 -1 -25 23 -21 34 20 55 48
25 56 21 19 -8z m2540 -59 c3 -11 9 -29 12 -40 4 -11 -2 -3 -14 18 -13 23 -25
35 -33 31 -9 -5 -9 -4 0 6 6 7 9 20 6 29 -4 11 -1 9 9 -4 8 -11 17 -29 20 -40z
m-2596 -3 c1 -6 -2 -10 -7 -6 -5 3 -9 -1 -10 -8 0 -10 -2 -10 -6 0 -2 6 -10 9
-16 5 -7 -3 -5 2 4 13 9 10 14 26 12 34 -2 8 2 6 9 -5 7 -11 13 -26 14 -33z
m2643 -37 c0 -5 -6 1 -14 15 -8 14 -14 30 -14 35 0 6 6 -1 14 -15 8 -14 14
-29 14 -35z m-96 20 c-3 -9 -8 -14 -10 -11 -3 3 -2 9 2 15 9 16 15 13 8 -4z
m-2493 -30 c0 -5 -5 -3 -10 5 -5 8 -10 20 -10 25 0 6 5 3 10 -5 5 -8 10 -19
10 -25z m-30 -10 c0 -5 -5 -3 -10 5 -5 8 -10 20 -10 25 0 6 5 3 10 -5 5 -8 10
-19 10 -25z m-53 3 c-3 -8 -6 -5 -6 6 -1 11 2 17 5 13 3 -3 4 -12 1 -19z m-30
-10 c-3 -8 -6 -5 -6 6 -1 11 2 17 5 13 3 -3 4 -12 1 -19z m2723 -23 c0 -5 -5
-3 -10 5 -5 8 -10 20 -10 25 0 6 5 3 10 -5 5 -8 10 -19 10 -25z m-2581 -30 c0
-5 -6 1 -14 15 -8 14 -14 30 -14 35 0 6 6 -1 14 -15 8 -14 14 -29 14 -35z
m2501 20 c0 -5 -5 -3 -10 5 -5 8 -10 20 -10 25 0 6 5 3 10 -5 5 -8 10 -19 10
-25z m50 0 c0 -5 -5 -3 -10 5 -5 8 -10 20 -10 25 0 6 5 3 10 -5 5 -8 10 -19
10 -25z m-2640 -10 c0 -5 -5 -3 -10 5 -5 8 -10 20 -10 25 0 6 5 3 10 -5 5 -8
10 -19 10 -25z m50 0 c0 -5 -5 -3 -10 5 -5 8 -10 20 -10 25 0 6 5 3 10 -5 5
-8 10 -19 10 -25z m-80 -10 c0 -5 -5 -3 -10 5 -5 8 -10 20 -10 25 0 6 5 3 10
-5 5 -8 10 -19 10 -25z m2609 -40 c0 -5 -6 1 -14 15 -8 14 -14 30 -14 35 0 6
6 -1 14 -15 8 -14 14 -29 14 -35z m111 20 c0 -5 -5 -3 -10 5 -5 8 -10 20 -10
25 0 6 5 3 10 -5 5 -8 10 -19 10 -25z m-80 -10 c0 -5 -5 -3 -10 5 -5 8 -10 20
-10 25 0 6 5 3 10 -5 5 -8 10 -19 10 -25z m50 0 c0 -5 -5 -3 -10 5 -5 8 -10
20 -10 25 0 6 5 3 10 -5 5 -8 10 -19 10 -25z m-2640 -10 c0 -5 -5 -3 -10 5 -5
8 -10 20 -10 25 0 6 5 3 10 -5 5 -8 10 -19 10 -25z m50 0 c0 -5 -5 -3 -10 5
-5 8 -10 20 -10 25 0 6 5 3 10 -5 5 -8 10 -19 10 -25z m-80 -10 c0 -5 -5 -3
-10 5 -5 8 -10 20 -10 25 0 6 5 3 10 -5 5 -8 10 -19 10 -25z m2640 -30 c0 -5
-5 -3 -10 5 -5 8 -10 20 -10 25 0 6 5 3 10 -5 5 -8 10 -19 10 -25z m-2552 -24
c15 12 15 11 -1 -7 -11 -14 -15 -28 -10 -40 6 -16 5 -17 -9 -4 -9 8 -14 17
-12 19 2 2 -3 19 -11 38 -21 49 -19 54 5 15 18 -30 23 -32 38 -21z m2522 14
c0 -5 -5 -3 -10 5 -5 8 -10 20 -10 25 0 6 5 3 10 -5 5 -8 10 -19 10 -25z
m-2581 -30 c0 -5 -6 1 -14 15 -8 14 -14 30 -14 35 0 6 6 -1 14 -15 8 -14 14
-29 14 -35z m2653 31 c7 4 8 2 4 -5 -4 -6 -12 -8 -18 -5 -7 5 -9 -2 -4 -22 4
-16 9 -50 13 -75 5 -44 3 -47 -33 -77 -45 -37 -58 -40 -49 -11 5 15 4 19 -4
15 -12 -8 -15 -74 -5 -100 12 -30 25 -16 19 22 -5 33 -1 31 11 -7 3 -11 9 -10
29 3 13 9 30 16 37 16 7 0 -2 -10 -20 -22 -33 -21 -34 -24 -17 -73 3 -11 -1
-8 -10 8 -20 35 -38 36 -25 1 13 -33 12 -44 -1 -20 -9 15 -13 16 -20 5 -7 -12
-9 -11 -9 1 -1 11 -4 10 -15 -4 -8 -11 -15 -15 -15 -9 0 15 25 34 35 25 4 -4
4 7 0 23 -4 17 -9 51 -12 76 -4 44 -3 48 31 75 35 28 42 46 30 78 -6 14 -10
14 -40 -5 -19 -11 -34 -17 -34 -12 0 5 14 17 30 27 24 14 29 22 24 39 -6 19
-5 20 9 6 15 -15 34 -100 28 -128 -1 -7 2 -10 8 -6 17 10 13 73 -6 113 -12 26
-14 37 -5 40 7 2 13 11 13 20 1 15 2 15 6 -1 2 -9 9 -14 15 -11z m-2634 -62
c1 -14 -2 -23 -8 -19 -6 3 -20 -1 -32 -9 -41 -29 -42 -17 -2 19 21 19 39 34
39 35 0 0 2 -11 3 -26z m39 -76 c-2 -13 -4 -5 -4 17 -1 22 1 32 4 23 2 -10 2
-28 0 -40z m-24 16 c5 -28 -15 -54 -41 -54 -14 1 -13 4 6 19 12 11 22 29 22
40 0 29 7 26 13 -5z m12 -54 c-7 -12 -65 -43 -70 -38 -9 8 12 28 33 31 12 2
25 6 28 10 11 10 16 8 9 -3z m-58 -82 c-3 -8 -6 -5 -6 6 -1 11 2 17 5 13 3 -3
4 -12 1 -19z m-30 -10 c-3 -8 -6 -5 -6 6 -1 11 2 17 5 13 3 -3 4 -12 1 -19z
m79 -13 c-38 -34 -61 -39 -49 -9 3 8 8 13 10 10 3 -2 19 4 36 15 46 27 46 24
3 -16z m-50 -50 c1 -5 5 -19 9 -30 3 -11 -1 -8 -10 8 -8 15 -18 27 -20 27 -2
0 -11 -12 -19 -27 -8 -16 -15 -23 -16 -17 0 6 8 22 19 35 10 13 16 31 14 39
-2 8 2 6 9 -5 7 -11 13 -24 14 -30z m44 -30 c0 -5 -5 -3 -10 5 -5 8 -10 20
-10 25 0 6 5 3 10 -5 5 -8 10 -19 10 -25z m-73 -27 c-3 -8 -6 -5 -6 6 -1 11 2
17 5 13 3 -3 4 -12 1 -19z m2683 -13 c0 -5 -5 -3 -10 5 -5 8 -10 20 -10 25 0
6 5 3 10 -5 5 -8 10 -19 10 -25z m-2581 -30 c0 -5 -6 1 -14 15 -8 14 -14 30
-14 35 0 6 6 -1 14 -15 8 -14 14 -29 14 -35z m2551 20 c0 -5 -5 -3 -10 5 -5 8
-10 20 -10 25 0 6 5 3 10 -5 5 -8 10 -19 10 -25z m-2581 -30 c0 -5 -6 1 -14
15 -8 14 -14 30 -14 35 0 6 6 -1 14 -15 8 -14 14 -29 14 -35z m2640 -35 c0 -8
-6 0 -14 19 -8 18 -15 36 -15 40 1 13 29 -45 29 -59z m-89 15 c0 -5 -5 -3 -10
5 -5 8 -10 20 -10 25 0 6 5 3 10 -5 5 -8 10 -19 10 -25z m50 0 c0 -5 -5 -3
-10 5 -5 8 -10 20 -10 25 0 6 5 3 10 -5 5 -8 10 -19 10 -25z m-2640 -10 c0 -5
-5 -3 -10 5 -5 8 -10 20 -10 25 0 6 5 3 10 -5 5 -8 10 -19 10 -25z m2560 0 c0
-5 -5 -3 -10 5 -5 8 -10 20 -10 25 0 6 5 3 10 -5 5 -8 10 -19 10 -25z m-2590
-10 c0 -5 -5 -3 -10 5 -5 8 -10 20 -10 25 0 6 5 3 10 -5 5 -8 10 -19 10 -25z
m119 -5 c0 -10 -3 -8 -9 5 -12 27 -12 43 0 25 5 -8 9 -22 9 -30z m-30 -10 c0
-10 -3 -8 -9 5 -12 27 -12 43 0 25 5 -8 9 -22 9 -30z m2551 -15 c0 -5 -5 -3
-10 5 -5 8 -10 20 -10 25 0 6 5 3 10 -5 5 -8 10 -19 10 -25z m-2581 -30 c0 -5
-6 1 -14 15 -8 14 -14 30 -14 35 0 6 6 -1 14 -15 8 -14 14 -29 14 -35z m2551
20 c0 -5 -5 -3 -10 5 -5 8 -10 20 -10 25 0 6 5 3 10 -5 5 -8 10 -19 10 -25z
m-2581 -30 c0 -5 -6 1 -14 15 -8 14 -14 30 -14 35 0 6 6 -1 14 -15 8 -14 14
-29 14 -35z m2673 13 c-8 -8 -9 -4 -5 13 4 13 8 18 11 10 2 -7 -1 -18 -6 -23z
m-2599 -11 c12 7 -21 -37 -36 -48 -5 -3 -5 -24 -1 -45 4 -21 7 -47 6 -57 0
-10 4 -15 11 -12 7 4 -4 -7 -23 -24 -41 -37 -54 -39 -45 -8 6 21 6 21 -9 3 -9
-11 -16 -15 -16 -8 0 6 16 24 35 39 34 27 41 46 29 77 -6 14 -10 14 -40 -5
-19 -11 -34 -17 -34 -12 0 5 14 17 30 27 24 13 30 23 26 39 -3 12 -3 16 0 10
8 -18 24 -16 24 2 0 8 5 15 10 15 6 0 11 8 11 18 1 16 2 16 6 -1 3 -10 10 -14
16 -10z m2580 -11 c7 4 2 -4 -10 -18 -13 -13 -23 -31 -24 -39 0 -11 -2 -11 -6
-1 -4 11 -8 11 -22 -1 -9 -8 -25 -17 -36 -21 -13 -4 -8 4 14 22 30 26 32 31
21 51 -6 13 -9 25 -7 28 3 2 8 -5 12 -16 3 -12 11 -21 16 -21 6 0 7 -5 3 -12
-4 -7 -3 -8 4 -4 8 5 8 15 2 32 -14 36 -12 42 6 16 8 -12 21 -19 27 -16z m4
-118 c-2 -13 -4 -5 -4 17 -1 22 1 32 4 23 2 -10 2 -28 0 -40z m-2590 -5 c-3
-10 -5 -2 -5 17 0 19 2 27 5 18 2 -10 2 -26 0 -35z m2565 -10 c-4 -12 -24 -18
-45 -14 -5 1 -5 -3 -2 -9 4 -6 13 -9 21 -6 8 3 14 1 14 -5 0 -5 -7 -12 -15
-15 -17 -7 -21 -59 -5 -69 5 -3 20 1 32 9 37 26 45 18 10 -10 -25 -20 -31 -31
-26 -46 5 -18 4 -19 -8 -7 -8 7 -15 18 -15 24 0 5 -5 30 -11 54 -6 24 -8 50
-5 59 5 11 3 13 -8 7 -12 -8 -12 -6 -1 8 8 9 22 19 33 22 12 4 19 16 20 33 l1
27 7 -25 c4 -14 6 -31 3 -37z m-75 -75 c-3 -7 -5 -2 -5 12 0 14 2 19 5 13 2
-7 2 -19 0 -25z m-2551 -46 c3 -10 12 -9 39 8 19 12 35 18 35 13 0 -5 -14 -17
-31 -27 -26 -15 -30 -22 -24 -45 6 -25 6 -25 -9 -5 -8 11 -17 38 -20 60 -5 35
-2 34 10 -4z m-9 -66 c4 -13 2 -17 -5 -12 -7 4 -12 1 -12 -6 0 -10 -2 -10 -9
1 -7 11 -11 10 -20 -5 -6 -11 -11 -14 -11 -8 0 16 25 35 34 27 4 -4 5 4 2 17
-17 75 -17 85 -1 45 9 -22 19 -49 22 -59z m2584 38 c2 3 6 -7 7 -21 2 -20 -1
-23 -11 -14 -10 8 -17 7 -27 -2 -8 -6 -7 -3 2 8 10 13 13 27 8 40 -5 11 -9 27
-9 35 0 8 6 0 13 -18 6 -18 14 -31 17 -28z m59 -79 c0 -5 -5 -3 -10 5 -5 8
-10 20 -10 25 0 6 5 3 10 -5 5 -8 10 -19 10 -25z m-30 -10 c0 -5 -5 -3 -10 5
-5 8 -10 20 -10 25 0 6 5 3 10 -5 5 -8 10 -19 10 -25z m-2550 -20 c0 -5 -5 -3
-10 5 -5 8 -10 20 -10 25 0 6 5 3 10 -5 5 -8 10 -19 10 -25z m2514 -15 c5 -17
4 -20 -2 -10 -5 8 -13 26 -16 40 -5 17 -4 20 2 10 5 -8 13 -26 16 -40z m-2637
18 c-3 -8 -6 -5 -6 6 -1 11 2 17 5 13 3 -3 4 -12 1 -19z m93 -13 c0 -5 -5 -3
-10 5 -5 8 -10 20 -10 25 0 6 5 3 10 -5 5 -8 10 -19 10 -25z m2639 -30 c0 -5
-6 1 -14 15 -8 14 -14 30 -14 35 0 6 6 -1 14 -15 8 -14 14 -29 14 -35z m-39
10 c0 -5 -5 -3 -10 5 -5 8 -10 20 -10 25 0 6 5 3 10 -5 5 -8 10 -19 10 -25z
m-80 -10 c0 -5 -5 -3 -10 5 -5 8 -10 20 -10 25 0 6 5 3 10 -5 5 -8 10 -19 10
-25z m-2590 -10 c0 -5 -5 -3 -10 5 -5 8 -10 20 -10 25 0 6 5 3 10 -5 5 -8 10
-19 10 -25z m120 0 c0 -5 -5 -3 -10 5 -5 8 -10 20 -10 25 0 6 5 3 10 -5 5 -8
10 -19 10 -25z m-80 -10 c0 -5 -5 -3 -10 5 -5 8 -10 20 -10 25 0 6 5 3 10 -5
5 -8 10 -19 10 -25z m50 0 c0 -5 -5 -3 -10 5 -5 8 -10 20 -10 25 0 6 5 3 10
-5 5 -8 10 -19 10 -25z m2550 -20 c0 -5 -5 -3 -10 5 -5 8 -10 20 -10 25 0 6 5
3 10 -5 5 -8 10 -19 10 -25z m50 0 c0 -5 -5 -3 -10 5 -5 8 -10 20 -10 25 0 6
5 3 10 -5 5 -8 10 -19 10 -25z m-80 -10 c0 -5 -5 -3 -10 5 -5 8 -10 20 -10 25
0 6 5 3 10 -5 5 -8 10 -19 10 -25z m-2581 -30 c0 -5 -6 1 -14 15 -8 14 -14 30
-14 35 0 6 6 -1 14 -15 8 -14 14 -29 14 -35z m68 23 c-3 -8 -6 -5 -6 6 -1 11
2 17 5 13 3 -3 4 -12 1 -19z m2601 -47 c15 12 15 11 -1 -7 -11 -14 -15 -28
-10 -40 6 -16 5 -17 -9 -4 -9 8 -14 17 -12 19 2 2 -3 19 -11 38 -21 49 -19 54
5 15 18 -30 23 -32 38 -21z m-2576 7 c-8 -8 -9 -4 -5 13 4 13 8 18 11 10 2 -7
-1 -18 -6 -23z m2517 -23 c0 -5 -6 1 -14 15 -8 14 -14 30 -14 35 0 6 6 -1 14
-15 8 -14 14 -29 14 -35z m-2548 25 c8 12 9 10 4 -9 -6 -18 -4 -22 6 -16 8 5
4 -3 -8 -17 -13 -13 -23 -31 -24 -39 0 -9 -2 -10 -5 -2 -4 8 -16 6 -42 -9
l-37 -20 34 29 c30 26 32 32 21 52 -6 13 -9 25 -7 28 3 2 8 -5 12 -16 3 -12
11 -21 16 -21 6 0 7 -5 3 -12 -4 -7 -3 -8 4 -4 8 5 8 15 2 32 -13 32 -12 43 0
24 9 -13 11 -13 21 0z m2567 -56 c1 -14 -2 -23 -8 -19 -6 3 -20 -1 -32 -9 -41
-29 -42 -17 -2 19 21 19 39 34 39 35 0 0 2 -11 3 -26z m39 -76 c-2 -13 -4 -5
-4 17 -1 22 1 32 4 23 2 -10 2 -28 0 -40z m-2590 -10 c-2 -13 -4 -5 -4 17 -1
22 1 32 4 23 2 -10 2 -28 0 -40z m2556 -15 c-9 -7 -24 -13 -32 -12 -12 0 -10
4 7 16 13 9 22 26 23 42 1 26 1 26 10 -4 7 -24 5 -33 -8 -42z m-2587 -13 c-17
-43 -64 -70 -51 -30 9 27 -3 25 -15 -2 -9 -20 -10 -20 -7 -3 1 11 17 29 34 40
21 13 33 29 34 45 l1 25 7 -25 c4 -14 3 -36 -3 -50z m2599 -10 c-10 -11 -24
-20 -31 -20 -7 0 -14 -5 -16 -12 -3 -7 -7 -8 -11 -2 -9 15 6 33 31 37 12 2 25
6 28 10 17 16 15 5 -1 -13z m-78 -42 c-3 -7 -5 -2 -5 12 0 14 2 19 5 13 2 -7
2 -19 0 -25z m30 -30 c-3 -8 -6 -5 -6 6 -1 11 2 17 5 13 3 -3 4 -12 1 -19z
m-2590 -10 c-3 -8 -6 -5 -6 6 -1 11 2 17 5 13 3 -3 4 -12 1 -19z m2560 0 c-3
-8 -6 -5 -6 6 -1 11 2 17 5 13 3 -3 4 -12 1 -19z m79 -13 c-38 -34 -61 -39
-49 -9 3 8 8 13 10 10 3 -2 19 4 36 15 46 27 46 24 3 -16z m-2669 3 c-3 -8 -6
-5 -6 6 -1 11 2 17 5 13 3 -3 4 -12 1 -19z m85 -4 c-25 -20 -31 -31 -27 -48 5
-15 4 -17 -3 -7 -11 16 -36 5 -26 -11 4 -7 2 -8 -4 -4 -7 4 -12 1 -13 -6 0
-10 -2 -10 -6 0 -2 6 -10 9 -16 5 -7 -3 -5 2 4 13 9 10 14 26 12 34 -3 10 0 9
7 -3 12 -19 32 -14 25 6 -3 7 10 20 28 29 48 25 56 21 19 -8z m2540 -59 c3
-11 9 -29 13 -40 3 -11 -1 -7 -10 9 -11 18 -20 25 -24 18 -4 -7 -7 6 -7 28 0
33 1 37 11 22 7 -9 14 -26 17 -37z m47 -40 c0 -5 -6 1 -14 15 -8 14 -14 30
-14 35 0 6 6 -1 14 -15 8 -14 14 -29 14 -35z m-96 20 c-3 -9 -8 -14 -10 -11
-3 3 -2 9 2 15 9 16 15 13 8 -4z m-2493 -30 c0 -5 -5 -3 -10 5 -5 8 -10 20
-10 25 0 6 5 3 10 -5 5 -8 10 -19 10 -25z m-30 -10 c0 -5 -5 -3 -10 5 -5 8
-10 20 -10 25 0 6 5 3 10 -5 5 -8 10 -19 10 -25z m-53 3 c-3 -8 -6 -5 -6 6 -1
11 2 17 5 13 3 -3 4 -12 1 -19z m-30 -10 c-3 -8 -6 -5 -6 6 -1 11 2 17 5 13 3
-3 4 -12 1 -19z m2723 -23 c0 -5 -5 -3 -10 5 -5 8 -10 20 -10 25 0 6 5 3 10
-5 5 -8 10 -19 10 -25z m-2581 -30 c0 -5 -6 1 -14 15 -8 14 -14 30 -14 35 0 6
6 -1 14 -15 8 -14 14 -29 14 -35z m2501 20 c0 -5 -5 -3 -10 5 -5 8 -10 20 -10
25 0 6 5 3 10 -5 5 -8 10 -19 10 -25z m50 0 c0 -5 -5 -3 -10 5 -5 8 -10 20
-10 25 0 6 5 3 10 -5 5 -8 10 -19 10 -25z m-2640 -10 c0 -5 -5 -3 -10 5 -5 8
-10 20 -10 25 0 6 5 3 10 -5 5 -8 10 -19 10 -25z m50 0 c0 -5 -5 -3 -10 5 -5
8 -10 20 -10 25 0 6 5 3 10 -5 5 -8 10 -19 10 -25z m-80 -10 c0 -5 -5 -3 -10
5 -5 8 -10 20 -10 25 0 6 5 3 10 -5 5 -8 10 -19 10 -25z m2609 -40 c0 -5 -6 1
-14 15 -8 14 -14 30 -14 35 0 6 6 -1 14 -15 8 -14 14 -29 14 -35z m111 20 c0
-5 -5 -3 -10 5 -5 8 -10 20 -10 25 0 6 5 3 10 -5 5 -8 10 -19 10 -25z m-80
-10 c0 -5 -5 -3 -10 5 -5 8 -10 20 -10 25 0 6 5 3 10 -5 5 -8 10 -19 10 -25z
m50 0 c0 -5 -5 -3 -10 5 -5 8 -10 20 -10 25 0 6 5 3 10 -5 5 -8 10 -19 10 -25z
m-2640 -10 c0 -5 -5 -3 -10 5 -5 8 -10 20 -10 25 0 6 5 3 10 -5 5 -8 10 -19
10 -25z m50 0 c0 -5 -5 -3 -10 5 -5 8 -10 20 -10 25 0 6 5 3 10 -5 5 -8 10
-19 10 -25z m-80 -10 c0 -5 -5 -3 -10 5 -5 8 -10 20 -10 25 0 6 5 3 10 -5 5
-8 10 -19 10 -25z m107 13 c-3 -8 -6 -5 -6 6 -1 11 2 17 5 13 3 -3 4 -12 1
-19z m2533 -43 c0 -5 -5 -3 -10 5 -5 8 -10 20 -10 25 0 6 5 3 10 -5 5 -8 10
-19 10 -25z m-2552 -24 c15 12 15 11 -1 -7 -11 -14 -15 -28 -10 -40 6 -16 5
-17 -9 -4 -9 8 -14 17 -12 19 2 2 -3 19 -11 38 -21 49 -19 54 5 15 18 -30 23
-32 38 -21z m2522 14 c0 -5 -5 -3 -10 5 -5 8 -10 20 -10 25 0 6 5 3 10 -5 5
-8 10 -19 10 -25z m80 0 c-7 -8 -17 -12 -23 -8 -6 4 -8 -4 -3 -23 4 -16 9 -50
13 -75 5 -44 3 -47 -33 -77 -45 -37 -58 -40 -49 -11 5 15 4 19 -4 15 -12 -8
-15 -74 -5 -100 12 -30 25 -16 19 22 -5 33 -1 31 11 -7 3 -11 9 -10 29 3 13 9
30 16 37 16 7 0 -2 -10 -20 -22 -33 -21 -34 -24 -17 -73 3 -11 -1 -8 -10 8
-20 35 -38 36 -25 1 13 -33 12 -44 -1 -20 -9 15 -13 16 -20 5 -7 -11 -9 -11
-9 -1 0 7 -5 10 -12 6 -7 -4 -8 -3 -4 5 4 6 12 8 18 5 7 -5 9 2 3 22 -4 16 -9
50 -12 75 -4 44 -3 48 31 75 35 28 42 46 30 77 -5 13 -10 13 -40 -5 -19 -11
-34 -16 -34 -11 0 5 14 17 30 27 24 14 29 22 24 39 -6 19 -5 20 9 6 15 -15 34
-100 28 -128 -1 -7 2 -10 8 -6 17 10 13 73 -6 113 -12 26 -14 37 -5 40 7 2 12
11 13 20 0 14 2 13 9 -3 8 -19 9 -19 16 5 4 13 9 19 12 12 2 -7 -2 -19 -8 -27z
m-2661 -30 c0 -5 -6 1 -14 15 -8 14 -14 30 -14 35 0 6 6 -1 14 -15 8 -14 14
-29 14 -35z m19 -11 c-3 -3 0 -29 8 -57 12 -47 12 -53 -3 -64 -9 -7 -24 -13
-32 -13 -12 1 -10 5 7 19 23 20 28 46 13 70 -7 11 -13 11 -32 -3 -42 -29 -43
-17 -3 19 21 19 41 34 43 35 2 0 2 -3 -1 -6z m39 -96 c-2 -13 -4 -5 -4 17 -1
22 1 32 4 23 2 -10 2 -28 0 -40z m-12 -38 c-7 -12 -65 -43 -70 -38 -9 8 12 28
33 31 12 2 25 6 28 10 11 10 16 8 9 -3z m-58 -82 c-3 -8 -6 -5 -6 6 -1 11 2
17 5 13 3 -3 4 -12 1 -19z m-30 -10 c-3 -8 -6 -5 -6 6 -1 11 2 17 5 13 3 -3 4
-12 1 -19z m79 -13 c-38 -34 -61 -39 -49 -9 3 8 8 13 10 10 3 -2 19 4 36 15
46 27 46 24 3 -16z m-50 -50 c1 -5 5 -19 9 -30 3 -11 -1 -8 -10 8 -8 15 -18
27 -20 27 -2 0 -11 -12 -19 -27 -8 -16 -15 -23 -16 -17 0 6 8 22 19 35 10 13
16 31 14 39 -2 8 2 6 9 -5 7 -11 13 -24 14 -30z m44 -30 c0 -5 -5 -3 -10 5 -5
8 -10 20 -10 25 0 6 5 3 10 -5 5 -8 10 -19 10 -25z m-73 -27 c-3 -8 -6 -5 -6
6 -1 11 2 17 5 13 3 -3 4 -12 1 -19z m2683 -13 c0 -5 -5 -3 -10 5 -5 8 -10 20
-10 25 0 6 5 3 10 -5 5 -8 10 -19 10 -25z m-2581 -30 c0 -5 -6 1 -14 15 -8 14
-14 30 -14 35 0 6 6 -1 14 -15 8 -14 14 -29 14 -35z m2551 20 c0 -5 -5 -3 -10
5 -5 8 -10 20 -10 25 0 6 5 3 10 -5 5 -8 10 -19 10 -25z m-2561 -85 c0 -8 -11
12 -24 44 -14 33 -25 62 -24 65 1 11 48 -94 48 -109z m2497 23 c-4 -4 -36 73
-35 85 0 4 9 -13 20 -37 11 -24 18 -46 15 -48z m123 -3 c0 -8 -6 0 -14 19 -8
18 -15 36 -15 40 1 13 29 -45 29 -59z m-89 15 c0 -5 -5 -3 -10 5 -5 8 -10 20
-10 25 0 6 5 3 10 -5 5 -8 10 -19 10 -25z m50 0 c0 -5 -5 -3 -10 5 -5 8 -10
20 -10 25 0 6 5 3 10 -5 5 -8 10 -19 10 -25z m-2640 -10 c0 -5 -5 -3 -10 5 -5
8 -10 20 -10 25 0 6 5 3 10 -5 5 -8 10 -19 10 -25z m-30 -10 c0 -5 -5 -3 -10
5 -5 8 -10 20 -10 25 0 6 5 3 10 -5 5 -8 10 -19 10 -25z m119 -5 c0 -10 -3 -8
-9 5 -12 27 -12 43 0 25 5 -8 9 -22 9 -30z m2521 -25 c0 -5 -5 -3 -10 5 -5 8
-10 20 -10 25 0 6 5 3 10 -5 5 -8 10 -19 10 -25z m-2581 -30 c0 -5 -6 1 -14
15 -8 14 -14 30 -14 35 0 6 6 -1 14 -15 8 -14 14 -29 14 -35z m2551 20 c0 -5
-5 -3 -10 5 -5 8 -10 20 -10 25 0 6 5 3 10 -5 5 -8 10 -19 10 -25z m-2581 -30
c0 -5 -6 1 -14 15 -8 14 -14 30 -14 35 0 6 6 -1 14 -15 8 -14 14 -29 14 -35z
m2681 30 c0 -8 -13 -30 -30 -48 -16 -19 -30 -41 -31 -48 0 -11 -2 -11 -6 -1
-3 9 -12 7 -30 -8 -40 -31 -52 -23 -14 9 30 25 32 30 21 50 -6 13 -9 25 -7 28
3 2 8 -5 12 -16 3 -12 11 -21 16 -21 6 0 7 -5 3 -12 -4 -7 -3 -8 4 -4 8 5 8
15 2 32 -14 37 -12 39 10 13 l19 -24 13 33 c14 35 18 40 18 17z m-2608 -29 c7
4 8 2 4 -5 -4 -6 -12 -9 -17 -6 -5 4 -9 -3 -9 -14 0 -12 -4 -21 -10 -21 -5 0
-10 -10 -11 -22 0 -13 -3 -17 -6 -10 -4 9 -13 7 -39 -9 -19 -11 -34 -17 -34
-12 0 5 14 17 30 27 24 13 30 23 26 39 -3 12 -3 16 0 10 8 -18 24 -16 24 2 0
8 5 15 10 15 6 0 11 8 11 18 1 16 2 16 6 -1 2 -9 9 -14 15 -11z m2585 -128
c-2 -13 -4 -5 -4 17 -1 22 1 32 4 23 2 -10 2 -28 0 -40z m-2590 -5 c-3 -10 -5
-2 -5 17 0 19 2 27 5 18 2 -10 2 -26 0 -35z m2565 -10 c-4 -12 -24 -18 -45
-14 -5 1 -6 -3 -2 -9 7 -11 33 -9 55 5 13 8 13 6 2 -8 -8 -9 -22 -19 -33 -22
-13 -4 -19 -16 -19 -35 0 -37 14 -45 42 -26 37 26 45 18 10 -10 -25 -20 -31
-31 -26 -46 5 -18 4 -19 -8 -7 -8 7 -15 18 -15 24 0 5 -5 30 -11 54 -6 24 -8
50 -5 59 5 11 3 13 -8 7 -12 -8 -12 -6 -1 8 8 9 22 19 33 22 12 4 19 16 20 33
l1 27 7 -25 c4 -14 6 -31 3 -37z m-2590 8 c1 -18 5 -28 12 -25 6 3 -5 -8 -24
-25 -41 -37 -54 -39 -45 -8 6 21 6 21 -9 3 -9 -11 -16 -15 -16 -8 0 6 16 24
35 39 19 15 35 37 35 47 0 32 11 11 12 -23z m2515 -83 c-3 -7 -5 -2 -5 12 0
14 2 19 5 13 2 -7 2 -19 0 -25z m-2551 -47 c3 -11 9 -10 29 3 13 9 30 16 37
16 7 0 -2 -10 -20 -22 -28 -17 -32 -25 -27 -47 6 -25 6 -25 -9 -5 -8 11 -17
38 -20 60 -5 35 -2 34 10 -5z m2575 -27 c2 3 6 -7 7 -21 2 -20 -1 -23 -11 -14
-10 8 -17 7 -27 -2 -8 -6 -7 -3 2 8 10 13 13 27 8 40 -5 11 -9 27 -9 35 0 8 6
0 13 -18 6 -18 14 -31 17 -28z m-2581 -46 c0 -5 -4 -6 -10 -3 -5 3 -10 0 -10
-7 0 -10 -2 -10 -9 1 -7 11 -11 10 -20 -5 -6 -11 -11 -14 -11 -8 0 16 25 35
34 27 7 -7 4 12 -9 67 -4 14 3 5 14 -19 12 -24 21 -47 21 -53z m2640 -33 c0
-5 -5 -3 -10 5 -5 8 -10 20 -10 25 0 6 5 3 10 -5 5 -8 10 -19 10 -25z m-2581
-30 c0 -5 -6 1 -14 15 -8 14 -14 30 -14 35 0 6 6 -1 14 -15 8 -14 14 -29 14
-35z m2551 20 c0 -5 -5 -3 -10 5 -5 8 -10 20 -10 25 0 6 5 3 10 -5 5 -8 10
-19 10 -25z m-2581 -30 c0 -5 -6 1 -14 15 -8 14 -14 30 -14 35 0 6 6 -1 14
-15 8 -14 14 -29 14 -35z m-33 -52 c-5 -5 -36 74 -36 90 1 6 10 -10 20 -37 11
-28 18 -51 16 -53z m-59 65 c-3 -8 -6 -5 -6 6 -1 11 2 17 5 13 3 -3 4 -12 1
-19z m2732 -43 c0 -5 -6 1 -14 15 -8 14 -14 30 -14 35 0 6 6 -1 14 -15 8 -14
14 -29 14 -35z m-89 10 c0 -5 -5 -3 -10 5 -5 8 -10 20 -10 25 0 6 5 3 10 -5 5
-8 10 -19 10 -25z m50 0 c0 -5 -5 -3 -10 5 -5 8 -10 20 -10 25 0 6 5 3 10 -5
5 -8 10 -19 10 -25z m-80 -10 c0 -5 -5 -3 -10 5 -5 8 -10 20 -10 25 0 6 5 3
10 -5 5 -8 10 -19 10 -25z m-2590 -10 c0 -5 -5 -3 -10 5 -5 8 -10 20 -10 25 0
6 5 3 10 -5 5 -8 10 -19 10 -25z m120 0 c0 -5 -5 -3 -10 5 -5 8 -10 20 -10 25
0 6 5 3 10 -5 5 -8 10 -19 10 -25z m-30 -10 c0 -5 -5 -3 -10 5 -5 8 -10 20
-10 25 0 6 5 3 10 -5 5 -8 10 -19 10 -25z m2550 -20 c0 -5 -5 -3 -10 5 -5 8
-10 20 -10 25 0 6 5 3 10 -5 5 -8 10 -19 10 -25z m50 0 c0 -5 -5 -3 -10 5 -5
8 -10 20 -10 25 0 6 5 3 10 -5 5 -8 10 -19 10 -25z m-80 -10 c0 -5 -5 -3 -10
5 -5 8 -10 20 -10 25 0 6 5 3 10 -5 5 -8 10 -19 10 -25z m-2581 -30 c0 -5 -6
1 -14 15 -8 14 -14 30 -14 35 0 6 6 -1 14 -15 8 -14 14 -29 14 -35z m68 23
c-3 -8 -6 -5 -6 6 -1 11 2 17 5 13 3 -3 4 -12 1 -19z m2587 -58 c2 0 3 8 1 18
-1 9 0 11 2 4 3 -7 10 -9 16 -5 7 3 4 -3 -6 -14 -9 -11 -16 -26 -14 -34 2 -8
2 -11 0 -6 -8 13 -23 7 -23 -9 0 -8 -4 -12 -10 -9 -5 3 -20 -1 -32 -9 -38 -27
-45 -17 -8 12 19 15 38 28 42 28 5 1 10 2 13 3 3 0 -2 17 -10 37 -20 50 -19
55 5 17 11 -18 22 -33 24 -33z m-2562 18 c-8 -8 -9 -4 -5 13 4 13 8 18 11 10
2 -7 -1 -18 -6 -23z m2517 -23 c0 -5 -6 1 -14 15 -8 14 -14 30 -14 35 0 6 6
-1 14 -15 8 -14 14 -29 14 -35z m-2548 25 c8 12 9 10 4 -9 -6 -18 -4 -22 6
-16 8 5 4 -3 -8 -17 -13 -13 -23 -31 -24 -39 0 -11 -2 -11 -6 -1 -4 11 -8 11
-22 -1 -9 -8 -25 -17 -36 -21 -13 -4 -8 4 14 22 30 26 32 31 21 51 -6 13 -9
25 -7 28 3 2 8 -5 12 -16 3 -12 11 -21 16 -21 6 0 7 -5 3 -12 -4 -7 -3 -8 4
-4 8 5 8 15 2 32 -13 32 -12 43 0 24 9 -13 11 -13 21 0z m2606 -132 c-2 -13
-4 -5 -4 17 -1 22 1 32 4 23 2 -10 2 -28 0 -40z m-2590 -10 c-2 -13 -4 -5 -4
17 -1 22 1 32 4 23 2 -10 2 -28 0 -40z m2560 0 c-2 -13 -4 -5 -4 17 -1 22 1
32 4 23 2 -10 2 -28 0 -40z m-2596 -41 c-6 -15 -18 -27 -28 -27 -15 0 -16 -2
-3 -10 11 -7 9 -11 -13 -19 -35 -13 -45 -53 -22 -87 9 -14 19 -23 22 -21 2 3
-2 16 -11 29 -14 22 -14 26 0 46 20 29 52 27 91 -6 45 -39 49 -85 8 -104 -21
-9 -29 -8 -46 8 -15 13 -20 14 -17 5 13 -42 78 -38 102 7 9 16 15 21 16 11 0
-26 -39 -59 -70 -59 -22 0 -42 12 -75 44 -60 59 -60 85 0 151 34 37 45 58 47
85 1 34 1 34 5 4 2 -16 -1 -42 -6 -57z m2604 4 c-11 -10 -31 -22 -45 -26 l-25
-6 25 20 c13 11 28 17 32 15 3 -2 9 0 13 6 3 5 9 10 13 10 3 0 -2 -9 -13 -19z
m19 -62 c40 -31 35 -69 -16 -124 -48 -52 -93 -60 -128 -25 -20 20 -28 56 -10
45 6 -3 10 -13 10 -20 0 -29 69 -47 87 -22 6 8 -2 22 -24 43 -33 33 -43 33
-43 3 0 -21 28 -39 49 -31 8 3 11 0 7 -7 -16 -26 -66 3 -66 38 0 28 59 91 86
91 33 0 57 -28 49 -57 -4 -16 -2 -22 5 -18 14 9 13 52 -2 65 -7 6 -22 17 -33
25 -11 8 -15 15 -9 15 6 0 23 -9 38 -21z m-2134 -39 c-8 -5 -19 -10 -25 -10
-5 0 -3 5 5 10 8 5 20 10 25 10 6 0 3 -5 -5 -10z m79 -3 c6 -8 7 -17 3 -22 -4
-4 9 -5 28 -1 32 6 33 5 15 -8 -25 -19 -33 -19 -51 -1 -12 12 -12 15 -2 15 8
1 6 6 -6 15 -11 8 -15 15 -9 15 6 0 16 -6 22 -13z m451 -2 c-14 -8 -29 -14
-35 -14 -5 0 1 6 15 14 14 8 30 14 35 14 6 0 -1 -6 -15 -14z m114 -15 c31 -28
38 -30 74 -22 46 11 62 4 65 -26 0 -11 5 -18 9 -16 9 6 6 33 -7 54 -8 13 -6
13 8 2 9 -8 19 -22 22 -33 4 -13 16 -19 35 -19 37 0 45 14 26 42 -26 37 -18
45 10 10 20 -25 31 -31 46 -26 18 5 19 4 7 -8 -7 -8 -18 -15 -24 -15 -5 0 -30
-5 -54 -11 -24 -6 -50 -8 -59 -5 -11 5 -13 3 -7 -8 8 -12 6 -12 -8 -1 -9 8
-19 22 -22 33 -6 19 -38 25 -69 13 -13 -5 -12 -10 6 -35 12 -16 19 -31 16 -34
-3 -4 -16 8 -28 25 -17 23 -27 29 -42 24 -18 -5 -19 -4 -7 9 8 8 18 12 23 9 5
-3 6 0 3 6 -4 5 -17 8 -30 4 -19 -5 -20 -3 -9 11 12 13 9 18 -15 31 -15 8 -23
15 -16 16 7 0 28 -14 47 -30z m986 20 c-8 -5 -19 -10 -25 -10 -5 0 -3 5 5 10
8 5 20 10 25 10 6 0 3 -5 -5 -10z m79 -3 c6 -8 8 -17 4 -21 -4 -4 6 -4 22 -1
86 18 115 18 136 -1 22 -20 54 -74 43 -74 -3 0 -15 11 -26 25 -14 18 -29 25
-53 25 -60 0 -66 -7 -43 -46 11 -19 16 -34 11 -34 -5 0 -17 14 -27 30 -14 24
-22 29 -39 24 -20 -6 -20 -5 -5 10 10 9 42 19 77 22 33 4 58 11 55 15 -9 15
-74 10 -110 -7 -31 -15 -35 -15 -49 0 -12 12 -13 16 -3 16 8 1 6 6 -6 15 -11
8 -15 15 -9 15 6 0 16 -6 22 -13z m-1869 -74 c0 -2 -5 -1 -12 3 -7 4 -8 3 -4
-4 5 -8 2 -10 -8 -6 -9 3 -15 9 -14 12 1 4 -6 23 -16 42 l-18 35 36 -39 c20
-21 36 -40 36 -43z m539 20 c9 3 25 8 36 12 11 3 8 -1 -7 -10 -36 -20 -37 -38
-2 -25 33 13 44 12 20 -1 -15 -9 -16 -13 -5 -20 11 -7 11 -9 1 -9 -7 0 -10 -5
-6 -12 4 -7 3 -8 -5 -4 -6 4 -8 12 -5 18 5 8 -4 9 -27 5 -19 -3 -28 -3 -21 0
17 7 15 23 -4 23 -8 0 -13 4 -10 9 3 4 -1 17 -9 27 -8 10 -14 26 -15 34 0 8
10 0 22 -18 13 -22 27 -32 37 -29z m681 47 c-8 -5 -19 -10 -25 -10 -5 0 -3 5
5 10 8 5 20 10 25 10 6 0 3 -5 -5 -10z m151 -17 c8 2 11 2 7 0 -14 -8 -8 -23
9 -23 9 0 14 -3 10 -6 -3 -4 0 -19 8 -35 8 -15 15 -32 15 -36 0 -11 -55 59
-55 72 -1 11 -8 11 -45 0 l-25 -8 25 21 c22 19 23 21 5 18 -11 -2 -14 -1 -7 1
7 3 9 10 5 16 -3 7 3 4 14 -6 11 -9 26 -16 34 -14z m209 17 c0 -6 11 -22 25
-36 26 -26 26 -48 0 -38 -8 3 -14 9 -13 12 1 4 -6 22 -15 40 -10 17 -13 32 -7
32 5 0 10 -5 10 -10z m-1470 -10 c-8 -5 -19 -10 -25 -10 -5 0 -3 5 5 10 8 5
20 10 25 10 6 0 3 -5 -5 -10z m309 -27 c37 -45 39 -57 9 -48 -16 5 -20 4 -13
-3 6 -6 28 -12 50 -15 l40 -4 -42 -1 c-37 -2 -45 2 -70 33 -27 34 -46 41 -76
29 -13 -5 -13 -10 5 -40 11 -19 16 -34 11 -34 -5 0 -17 14 -26 30 -10 17 -22
30 -28 30 -5 0 -9 4 -9 9 0 10 94 27 120 22 10 -2 12 1 5 7 -5 6 -28 12 -50
15 l-40 4 42 1 c37 2 45 -2 72 -35z m499 30 c-10 -2 -28 -2 -40 0 -13 2 -5 4
17 4 22 1 32 -1 23 -4z m540 0 c-10 -2 -28 -2 -40 0 -13 2 -5 4 17 4 22 1 32
-1 23 -4z m282 -3 c-8 -5 -19 -10 -25 -10 -5 0 -3 5 5 10 8 5 20 10 25 10 6 0
3 -5 -5 -10z m-1570 -10 c-8 -5 -19 -10 -25 -10 -5 0 -3 5 5 10 8 5 20 10 25
10 6 0 3 -5 -5 -10z m460 0 c-8 -5 -19 -10 -25 -10 -5 0 -3 5 5 10 8 5 20 10
25 10 6 0 3 -5 -5 -10z m530 -5 c-14 -8 -29 -14 -35 -14 -5 0 1 6 15 14 14 8
30 14 35 14 6 0 -1 -6 -15 -14z m360 -32 c0 -7 5 -13 12 -13 19 0 -1 -14 -23
-15 -12 -1 -27 8 -36 22 -9 14 -26 23 -42 24 l-26 1 28 8 c16 5 36 6 44 3 12
-5 14 -3 8 8 -5 8 1 5 13 -5 12 -11 22 -25 22 -33z m280 37 c-8 -5 -19 -10
-25 -10 -5 0 -3 5 5 10 8 5 20 10 25 10 6 0 3 -5 -5 -10z m-1954 -17 c7 -10
14 -24 14 -32 0 -20 -26 4 -33 29 -6 25 2 26 19 3z m204 2 c-14 -8 -29 -14
-35 -14 -5 0 1 6 15 14 14 8 30 14 35 14 6 0 -1 -6 -15 -14z m640 5 c-8 -5
-19 -10 -25 -10 -5 0 -3 5 5 10 8 5 20 10 25 10 6 0 3 -5 -5 -10z m505 -15
c-27 -13 -54 -24 -60 -24 -5 1 13 11 40 24 28 13 55 24 60 24 6 -1 -12 -11
-40 -24z m485 10 c-14 -8 -29 -14 -35 -14 -5 0 1 6 15 14 14 8 30 14 35 14 6
0 -1 -6 -15 -14z m-1560 -5 c-8 -5 -19 -10 -25 -10 -5 0 -3 5 5 10 8 5 20 10
25 10 6 0 3 -5 -5 -10z m1630 0 c-8 -5 -19 -10 -25 -10 -5 0 -3 5 5 10 8 5 20
10 25 10 6 0 3 -5 -5 -10z m-1530 -10 c-8 -5 -19 -10 -25 -10 -5 0 -3 5 5 10
8 5 20 10 25 10 6 0 3 -5 -5 -10z m420 0 c-8 -5 -19 -10 -25 -10 -5 0 -3 5 5
10 8 5 20 10 25 10 6 0 3 -5 -5 -10z m1210 0 c-8 -5 -19 -10 -25 -10 -5 0 -3
5 5 10 8 5 20 10 25 10 6 0 3 -5 -5 -10z m-1803 -21 c-23 -12 -35 -24 -31 -32
5 -9 4 -9 -6 0 -7 6 -20 9 -29 6 -26 -7 20 20 54 33 48 18 53 15 12 -7z m693
11 c-8 -5 -19 -10 -25 -10 -5 0 -3 5 5 10 8 5 20 10 25 10 6 0 3 -5 -5 -10z
m946 -6 c-18 -10 -24 -19 -18 -23 7 -4 -7 -7 -29 -7 -43 0 -36 8 26 32 44 17
54 16 21 -2z m-1516 -4 c-8 -5 -19 -10 -25 -10 -5 0 -3 5 5 10 8 5 20 10 25
10 6 0 3 -5 -5 -10z m1090 0 c-8 -5 -19 -10 -25 -10 -5 0 -3 5 5 10 8 5 20 10
25 10 6 0 3 -5 -5 -10z m80 0 c-8 -5 -19 -10 -25 -10 -5 0 -3 5 5 10 8 5 20
10 25 10 6 0 3 -5 -5 -10z m460 0 c-8 -5 -19 -10 -25 -10 -5 0 -3 5 5 10 8 5
20 10 25 10 6 0 3 -5 -5 -10z m-1897 -7 c-7 -2 -19 -2 -25 0 -7 3 -2 5 12 5
14 0 19 -2 13 -5z m44 1 c-3 -3 -12 -4 -19 -1 -8 3 -5 6 6 6 11 1 17 -2 13 -5z
m283 -4 c-8 -5 -19 -10 -25 -10 -5 0 -3 5 5 10 8 5 20 10 25 10 6 0 3 -5 -5
-10z m257 4 c-3 -3 -12 -4 -19 -1 -8 3 -5 6 6 6 11 1 17 -2 13 -5z m203 -4
c-8 -5 -19 -10 -25 -10 -5 0 -3 5 5 10 8 5 20 10 25 10 6 0 3 -5 -5 -10z m421
-3 c-8 -10 -7 -17 2 -27 6 -8 3 -7 -8 2 -13 10 -27 13 -40 8 -11 -5 -38 -8
-60 -8 -23 0 -29 2 -15 5 77 11 90 15 86 21 -3 4 7 9 21 10 20 2 23 -1 14 -11z
m466 7 c-3 -3 -12 -4 -19 -1 -8 3 -5 6 6 6 11 1 17 -2 13 -5z m283 -4 c-8 -5
-19 -10 -25 -10 -5 0 -3 5 5 10 8 5 20 10 25 10 6 0 3 -5 -5 -10z m-1740 -10
c-8 -5 -19 -10 -25 -10 -5 0 -3 5 5 10 8 5 20 10 25 10 6 0 3 -5 -5 -10z m630
0 c-8 -5 -19 -10 -25 -10 -5 0 -3 5 5 10 8 5 20 10 25 10 6 0 3 -5 -5 -10z
m460 0 c-8 -5 -22 -9 -30 -9 -10 0 -8 3 5 9 27 12 43 12 25 0z m70 -5 c-14 -8
-29 -14 -35 -14 -5 0 1 6 15 14 14 8 30 14 35 14 6 0 -1 -6 -15 -14z m470 5
c-8 -5 -19 -10 -25 -10 -5 0 -3 5 5 10 8 5 20 10 25 10 6 0 3 -5 -5 -10z
m-1570 -10 c-8 -5 -19 -10 -25 -10 -5 0 -3 5 5 10 8 5 20 10 25 10 6 0 3 -5
-5 -10z m1620 -5 c-14 -8 -29 -14 -35 -14 -5 0 1 6 15 14 14 8 30 14 35 14 6
0 -1 -6 -15 -14z m-1857 -2 c-13 -2 -33 -2 -45 0 -13 2 -3 4 22 4 25 0 35 -2
23 -4z m757 -3 c-8 -5 -19 -10 -25 -10 -5 0 -3 5 5 10 8 5 20 10 25 10 6 0 3
-5 -5 -10z m873 3 c-13 -2 -33 -2 -45 0 -13 2 -3 4 22 4 25 0 35 -2 23 -4z
m-1518 -21 c-3 -3 -11 0 -18 7 -9 10 -8 11 6 5 10 -3 15 -9 12 -12z m75 8 c-8
-5 -19 -10 -25 -10 -5 0 -3 5 5 10 8 5 20 10 25 10 6 0 3 -5 -5 -10z m1090 0
c-8 -5 -19 -10 -25 -10 -5 0 -3 5 5 10 8 5 20 10 25 10 6 0 3 -5 -5 -10z m465
-8 c-3 -3 -11 0 -18 7 -9 10 -8 11 6 5 10 -3 15 -9 12 -12z"/>
<path d="M380 4511 c0 -15 30 -41 46 -41 17 0 18 22 2 38 -14 14 -48 16 -48 3z"/>
<path d="M360 4465 c0 -32 44 -46 68 -21 15 15 15 16 -5 16 -11 0 -26 7 -33
15 -18 22 -30 18 -30 -10z"/>
<path d="M2924 4536 c-12 -9 -15 -20 -10 -39 9 -36 18 -34 37 8 18 38 5 54
-27 31z"/>
<path d="M2962 4508 c-14 -14 -16 -48 -3 -48 15 0 41 30 41 46 0 17 -22 18
-38 2z"/>
<path d="M2988 4466 c-21 -19 -24 -26 -13 -30 25 -9 45 5 45 30 0 29 1 29 -32
0z"/>
<path d="M2225 4531 c-3 -5 -1 -12 5 -16 6 -4 7 -11 4 -17 -4 -7 -2 -8 5 -4 8
6 9 12 2 20 -6 7 -8 16 -4 19 3 4 4 7 0 7 -3 0 -8 -4 -12 -9z"/>
<path d="M512 2443 l3 -1948 1178 -3 1177 -2 0 1950 0 1950 -1180 0 -1180 0 2
-1947z m2286 0 l-3 -1878 -1099 -3 c-873 -2 -1101 0 -1108 10 -9 16 -11 3732
-1 3741 3 4 503 7 1110 7 l1103 0 -2 -1877z"/>
<path d="M610 2440 l0 -1850 1080 0 1080 0 0 1850 0 1850 -1080 0 -1080 0 0
-1850z m190 1770 c40 -31 40 -31 40 -8 0 12 5 30 11 38 8 13 13 11 31 -12 l21
-27 30 21 c43 31 115 36 147 10 20 -17 23 -24 14 -38 -16 -26 -35 -29 -41 -5
-12 45 -57 35 -127 -26 -29 -26 -34 -36 -28 -54 7 -19 10 -17 24 19 10 26 27
46 48 57 40 21 50 12 21 -18 -12 -13 -26 -38 -31 -56 -8 -28 -7 -31 9 -26 17
5 18 -2 17 -72 l-1 -78 -78 -1 c-74 -2 -77 -1 -71 19 5 16 3 19 -11 14 -9 -4
-20 -7 -25 -7 -5 0 -23 -12 -40 -26 -38 -32 -47 -26 -25 16 10 20 31 38 58 49
38 16 40 19 20 25 -37 12 -26 25 15 20 33 -4 35 -3 18 8 -60 41 -116 105 -116
133 0 15 31 1 67 -30 47 -40 87 -100 78 -115 -3 -5 -2 -10 3 -10 11 0 6 126
-7 148 -9 14 -10 11 -11 -15 0 -18 -3 -33 -6 -33 -3 0 -24 16 -47 35 -80 69
-123 25 -52 -54 19 -21 35 -41 35 -44 0 -3 -15 -7 -32 -9 l-33 -4 28 -12 c34
-14 34 -22 1 -53 -52 -48 -69 -107 -34 -116 24 -6 27 -41 5 -50 -9 -3 -25 3
-36 13 -17 16 -20 28 -17 70 3 31 13 63 26 81 l22 31 -27 17 c-25 17 -26 18
-8 31 10 8 28 14 39 14 18 0 18 2 -6 28 -14 15 -31 37 -37 49 -15 29 -14 80 2
87 26 11 79 -4 117 -34z m1672 10 c30 -22 32 -22 44 -5 7 10 15 22 17 28 6 18
25 -2 32 -34 l7 -31 26 25 c55 50 113 63 132 28 16 -31 12 -45 -24 -99 l-33
-50 29 -8 c37 -11 38 -25 4 -42 l-28 -14 20 -21 c42 -45 54 -116 26 -155 -20
-30 -58 -26 -62 6 -3 17 2 22 17 22 40 0 25 67 -28 123 l-26 28 25 19 25 20
-34 0 -35 0 26 28 c37 40 58 74 58 94 0 32 -44 21 -94 -23 l-46 -41 0 31 c0
17 -4 31 -10 31 -12 0 -11 2 -13 -70 l-2 -56 29 44 c30 45 101 100 114 88 13
-14 -36 -81 -84 -115 l-49 -33 43 7 c45 7 60 -8 20 -21 -22 -7 -22 -8 8 -20
34 -14 74 -58 74 -81 0 -10 -9 -7 -31 11 -17 14 -34 26 -39 26 -5 0 -16 3 -26
7 -14 5 -16 2 -11 -20 7 -25 6 -25 -30 -15 -20 5 -55 8 -78 6 l-42 -3 1 50 c0
28 -3 63 -7 78 -7 26 -6 28 13 22 35 -11 22 43 -23 93 -17 18 -18 22 -5 22 27
0 77 -49 86 -83 8 -32 9 -32 21 -10 10 20 8 26 -21 53 -61 55 -128 73 -128 35
0 -15 -19 -24 -37 -17 -18 6 -16 32 4 55 24 26 102 19 145 -13z m-1244 -52
c30 -30 2 -86 -37 -73 -33 10 -45 32 -33 60 13 27 49 34 70 13z m136 6 c20 -8
21 -57 1 -74 -32 -27 -80 16 -64 58 8 22 32 28 63 16z m156 -15 c9 -16 8 -26
-5 -45 -17 -27 -27 -29 -56 -14 -21 12 -25 50 -7 68 19 19 56 14 68 -9z m140
1 c23 -43 -17 -83 -60 -60 -22 12 -27 49 -8 68 19 19 56 14 68 -8z m140 5 c15
-19 6 -61 -16 -69 -27 -10 -53 3 -60 30 -8 30 11 54 41 54 12 0 28 -7 35 -15z
m138 3 c21 -21 14 -57 -13 -70 -22 -10 -29 -9 -47 10 -19 18 -20 25 -10 47 13
27 49 34 70 13z m140 0 c18 -18 14 -56 -7 -68 -29 -15 -39 -13 -56 14 -13 19
-14 29 -5 45 12 23 49 28 68 9z m151 -10 c16 -42 -32 -85 -64 -58 -18 15 -20
66 -2 73 30 13 58 6 66 -15z m-1141 -130 c19 -19 14 -56 -8 -68 -43 -23 -83
17 -60 60 12 22 49 27 68 8z m140 0 c27 -27 7 -78 -29 -78 -21 0 -49 26 -49
45 0 35 53 58 78 33z m140 0 c16 -16 15 -53 -3 -68 -19 -16 -45 -10 -61 15
-26 39 31 86 64 53z m146 -4 c20 -19 20 -24 0 -52 -26 -37 -74 -23 -74 23 0
42 44 59 74 29z m140 0 c9 -8 16 -22 16 -29 0 -7 -7 -21 -16 -29 -30 -30 -74
-13 -74 29 0 42 44 59 74 29z m144 4 c19 -19 14 -56 -8 -68 -29 -16 -59 -3
-66 27 -11 41 44 71 74 41z m140 0 c26 -26 8 -78 -27 -78 -18 0 -51 29 -51 46
0 34 54 56 78 32z m140 0 c27 -27 7 -78 -29 -78 -23 0 -49 38 -41 59 11 31 48
41 70 19z m146 -10 c13 -19 14 -25 2 -43 -26 -39 -76 -26 -76 19 0 46 48 62
74 24z m140 6 c9 -8 16 -22 16 -29 0 -7 -7 -21 -16 -29 -30 -30 -74 -13 -74
29 0 42 44 59 74 29z m-1420 -140 c19 -18 20 -28 6 -55 -19 -35 -80 -18 -80
22 0 21 26 49 45 49 7 0 21 -7 29 -16z m144 4 c27 -27 7 -78 -29 -78 -21 0
-49 26 -49 45 0 35 53 58 78 33z m140 0 c17 -17 15 -53 -3 -68 -20 -17 -62 -5
-70 21 -13 40 44 76 73 47z m140 0 c16 -16 15 -53 -3 -68 -19 -16 -45 -10 -61
15 -26 39 31 86 64 53z m146 -4 c9 -8 16 -22 16 -29 0 -7 -7 -21 -16 -29 -30
-30 -74 -13 -74 29 0 42 44 59 74 29z m140 0 c19 -18 20 -28 6 -55 -20 -37
-80 -18 -80 26 0 42 44 59 74 29z m141 0 c23 -24 15 -57 -17 -68 -33 -12 -58
6 -58 40 0 39 46 56 75 28z m143 4 c7 -7 12 -21 12 -33 0 -44 -60 -63 -80 -26
-14 27 -13 37 6 55 18 19 45 21 62 4z m140 0 c17 -17 15 -53 -3 -68 -8 -7 -25
-10 -40 -6 -24 6 -30 21 -25 56 4 29 46 40 68 18z m146 -10 c13 -19 14 -25 2
-43 -26 -39 -76 -26 -76 19 0 46 48 62 74 24z m140 3 c23 -25 13 -59 -20 -67
-30 -8 -54 11 -54 40 0 45 44 61 74 27z m140 3 c9 -8 16 -22 16 -29 0 -7 -7
-21 -16 -29 -30 -30 -74 -13 -74 29 0 42 44 59 74 29z m-1699 -144 c15 -17 16
-24 7 -45 -20 -43 -82 -28 -82 20 0 45 44 59 75 25z m139 4 c30 -30 13 -74
-29 -74 -42 0 -59 44 -29 74 8 9 22 16 29 16 7 0 21 -7 29 -16z m137 6 c37
-20 18 -80 -26 -80 -42 0 -59 44 -29 74 18 19 28 20 55 6z m140 0 c21 -12 25
-50 7 -68 -39 -39 -100 17 -63 58 21 23 29 24 56 10z m140 0 c23 -13 26 -68 4
-76 -25 -10 -62 4 -68 25 -5 21 17 61 34 61 6 0 19 -5 30 -10z m133 4 c44 -17
38 -84 -7 -84 -29 0 -47 18 -47 45 0 21 17 45 31 45 4 0 15 -3 23 -6z m161
-14 c15 -17 16 -24 7 -45 -20 -43 -82 -28 -82 20 0 45 44 59 75 25z m139 4
c30 -30 13 -74 -29 -74 -42 0 -59 44 -29 74 8 9 22 16 29 16 7 0 21 -7 29 -16z
m144 4 c29 -29 7 -78 -35 -78 -35 0 -52 43 -28 70 20 23 45 26 63 8z m140 0
c7 -7 12 -21 12 -33 0 -44 -60 -63 -80 -25 -22 42 35 91 68 58z m145 -9 c19
-27 10 -58 -19 -65 -37 -9 -54 2 -54 35 0 48 48 67 73 30z m142 1 c37 -41 -24
-97 -63 -58 -18 18 -15 55 6 67 25 15 37 13 57 -9z m139 4 c30 -30 13 -74 -29
-74 -42 0 -59 44 -29 74 8 9 22 16 29 16 7 0 21 -7 29 -16z m140 0 c30 -30 13
-74 -29 -74 -42 0 -59 44 -29 74 8 9 22 16 29 16 7 0 21 -7 29 -16z m-1846
-140 c28 -19 28 -48 1 -68 -47 -33 -94 28 -53 68 19 20 24 20 52 0z m157 -34
c0 -12 -9 -29 -20 -36 -18 -12 -24 -11 -43 2 -12 8 -22 24 -22 34 0 10 10 26
22 34 19 13 25 14 43 2 11 -7 20 -24 20 -36z m140 19 c11 -16 -3 -56 -21 -63
-23 -9 -64 20 -64 44 0 27 38 52 61 39 10 -5 21 -14 24 -20z m143 -15 c3 -18
-2 -32 -14 -41 -24 -17 -30 -17 -54 7 -25 25 -25 35 0 60 27 27 64 13 68 -26z
m140 -2 c2 -23 -2 -34 -17 -42 -45 -24 -87 34 -50 71 27 27 63 12 67 -29z
m132 28 c25 -25 25 -35 0 -60 -15 -15 -25 -17 -42 -11 -30 11 -37 60 -12 78
24 17 30 17 54 -7z m138 4 c28 -19 28 -48 1 -68 -47 -33 -94 28 -53 68 19 20
24 20 52 0z m157 -34 c0 -12 -9 -29 -20 -36 -18 -12 -24 -11 -43 2 -12 8 -22
24 -22 34 0 10 10 26 22 34 19 13 25 14 43 2 11 -7 20 -24 20 -36z m129 34
c41 -40 -6 -101 -53 -68 -27 20 -27 49 1 68 28 20 33 20 52 0z m140 3 c25 -18
18 -67 -12 -78 -17 -6 -27 -4 -42 11 -25 25 -25 35 0 60 24 24 30 24 54 7z
m156 -17 c20 -38 -22 -80 -60 -60 -29 16 -27 68 3 79 27 10 44 4 57 -19z m140
0 c20 -38 -22 -80 -60 -60 -29 16 -27 68 3 79 27 10 44 4 57 -19z m148 -18 c4
-25 -37 -56 -62 -46 -9 3 -19 18 -23 32 -4 19 -1 30 17 44 20 16 25 17 44 5
12 -8 22 -24 24 -35z m137 -2 c0 -12 -9 -29 -20 -36 -18 -12 -24 -11 -43 2
-12 8 -22 24 -22 34 0 10 10 26 22 34 19 13 25 14 43 2 11 -7 20 -24 20 -36z
m-1845 -119 c15 -29 13 -39 -14 -56 -31 -21 -66 -5 -66 28 0 46 59 66 80 28z
m138 7 c29 -29 -7 -82 -49 -71 -24 7 -36 48 -19 68 15 18 51 20 68 3z m142 -3
c15 -18 6 -61 -14 -68 -25 -10 -56 5 -62 29 -8 30 11 54 41 54 12 0 28 -7 35
-15z m138 3 c19 -19 14 -56 -9 -68 -16 -9 -26 -8 -45 5 -27 17 -29 27 -14 56
12 21 50 25 68 7z m136 6 c10 -4 16 -18 16 -35 0 -34 -30 -55 -59 -40 -24 13
-30 31 -20 59 8 22 32 28 63 16z m156 -13 c20 -39 -22 -82 -60 -61 -22 12 -27
49 -8 68 18 18 56 14 68 -7z m140 0 c15 -29 13 -39 -14 -56 -31 -21 -66 -5
-66 28 0 46 59 66 80 28z m140 4 c17 -20 5 -61 -19 -68 -25 -6 -61 19 -61 42
0 38 55 56 80 26z m138 3 c19 -19 14 -56 -9 -68 -16 -9 -26 -8 -45 5 -27 17
-29 27 -14 56 12 21 50 25 68 7z m140 0 c19 -19 14 -56 -8 -68 -38 -21 -80 22
-60 61 12 21 50 25 68 7z m151 -10 c10 -28 4 -46 -20 -59 -29 -15 -59 6 -59
41 0 30 10 38 48 39 15 1 26 -7 31 -21z m141 3 c15 -29 13 -39 -14 -56 -31
-21 -66 -5 -66 28 0 46 59 66 80 28z m140 4 c17 -21 5 -61 -21 -68 -30 -8 -48
2 -55 29 -8 30 11 54 41 54 12 0 28 -7 35 -15z m140 0 c15 -19 6 -61 -16 -69
-22 -8 -64 20 -64 42 0 39 55 57 80 27z m-1838 -150 c10 -22 9 -29 -10 -47
-18 -19 -25 -20 -47 -10 -16 8 -25 20 -25 35 0 50 62 66 82 22z m138 10 c15
-19 6 -61 -16 -69 -27 -10 -53 3 -60 30 -8 30 11 54 41 54 12 0 28 -7 35 -15z
m138 3 c19 -19 14 -56 -8 -68 -43 -23 -83 17 -60 60 12 22 49 27 68 8z m142
-2 c15 -19 9 -56 -11 -69 -20 -12 -69 15 -69 38 0 37 56 59 80 31z m134 8 c20
-8 21 -57 1 -74 -35 -29 -85 21 -59 58 16 23 30 27 58 16z m156 -15 c9 -16 8
-26 -5 -45 -17 -27 -27 -29 -56 -14 -21 12 -25 50 -7 68 19 19 56 14 68 -9z
m140 1 c23 -43 -17 -83 -60 -60 -22 12 -27 49 -8 68 19 19 56 14 68 -8z m140
5 c15 -19 6 -61 -16 -69 -27 -10 -53 3 -60 30 -8 30 11 54 41 54 12 0 28 -7
35 -15z m138 3 c21 -21 14 -57 -13 -70 -22 -10 -29 -9 -47 10 -19 18 -20 25
-10 47 13 27 49 34 70 13z m140 0 c18 -18 14 -56 -7 -68 -29 -15 -39 -13 -56
14 -13 19 -14 29 -5 45 12 23 49 28 68 9z m146 -10 c18 -25 7 -53 -24 -63 -28
-9 -50 11 -50 45 0 43 48 55 74 18z m140 6 c20 -20 20 -33 -1 -56 -29 -32 -73
-16 -73 27 0 42 44 59 74 29z m146 -4 c21 -40 -9 -78 -51 -65 -24 8 -35 50
-19 70 18 22 57 19 70 -5z m140 5 c15 -19 6 -61 -16 -69 -27 -10 -53 3 -60 30
-8 30 11 54 41 54 12 0 28 -7 35 -15z m-1846 -141 c19 -18 20 -28 6 -55 -20
-37 -80 -18 -80 26 0 42 44 59 74 29z m140 0 c19 -18 20 -28 6 -55 -20 -37
-80 -18 -80 26 0 42 44 59 74 29z m144 4 c17 -17 15 -53 -3 -68 -20 -17 -62
-5 -70 20 -14 44 41 80 73 48z m140 0 c27 -27 7 -78 -29 -78 -21 0 -49 26 -49
45 0 35 53 58 78 33z m140 0 c16 -16 15 -53 -3 -68 -19 -16 -45 -10 -61 15
-26 39 31 86 64 53z m146 -4 c9 -8 16 -22 16 -29 0 -7 -7 -21 -16 -29 -30 -30
-74 -13 -74 29 0 42 44 59 74 29z m140 0 c19 -18 20 -28 6 -55 -20 -37 -80
-18 -80 26 0 42 44 59 74 29z m146 2 c19 -24 8 -60 -22 -70 -33 -12 -58 6 -58
40 0 38 55 59 80 30z m138 2 c7 -7 12 -21 12 -33 0 -44 -60 -63 -80 -26 -14
27 -13 37 6 55 18 19 45 21 62 4z m140 0 c17 -17 15 -53 -3 -68 -8 -7 -25 -10
-40 -6 -24 6 -30 21 -25 56 4 29 46 40 68 18z m146 -10 c13 -19 14 -25 2 -43
-26 -39 -76 -26 -76 19 0 46 48 62 74 24z m140 6 c9 -8 16 -22 16 -29 0 -7 -7
-21 -16 -29 -30 -30 -74 -13 -74 29 0 42 44 59 74 29z m146 -4 c15 -29 3 -59
-26 -66 -30 -8 -54 11 -54 40 0 46 59 64 80 26z m138 8 c7 -7 12 -21 12 -33 0
-44 -60 -63 -80 -26 -14 27 -13 37 6 55 18 19 45 21 62 4z m-1843 -148 c15
-17 16 -24 7 -45 -20 -43 -82 -28 -82 20 0 45 44 59 75 25z m139 4 c19 -18 20
-28 6 -55 -19 -35 -80 -18 -80 22 0 21 26 49 45 49 7 0 21 -7 29 -16z m137 6
c37 -20 18 -80 -26 -80 -42 0 -59 44 -29 74 18 19 28 20 55 6z m140 0 c21 -12
25 -50 7 -68 -39 -39 -100 17 -63 58 21 23 29 24 56 10z m140 0 c23 -13 25
-52 4 -70 -20 -17 -61 -5 -68 19 -5 21 17 61 34 61 6 0 19 -5 30 -10z m149
-10 c24 -24 25 -34 4 -54 -30 -30 -74 -13 -74 29 0 44 37 58 70 25z m428 8
c29 -29 7 -78 -35 -78 -35 0 -52 43 -28 70 20 23 45 26 63 8z m140 0 c27 -27
7 -78 -29 -78 -19 0 -49 25 -49 41 0 14 38 49 53 49 7 0 18 -5 25 -12z m145
-9 c20 -27 10 -58 -19 -65 -30 -8 -54 11 -54 42 0 41 50 57 73 23z m142 1 c37
-41 -24 -97 -63 -58 -18 18 -15 55 6 67 25 15 37 13 57 -9z m139 4 c30 -30 13
-74 -29 -74 -42 0 -59 44 -29 74 8 9 22 16 29 16 7 0 21 -7 29 -16z m140 0
c31 -31 13 -74 -31 -74 -21 0 -43 25 -43 49 0 14 29 41 45 41 7 0 21 -7 29
-16z m-895 -109 c22 -19 36 -24 55 -19 23 5 26 3 26 -18 0 -20 8 -28 40 -41
93 -36 107 -170 25 -235 l-27 -21 27 -25 c14 -13 22 -27 17 -30 -5 -3 -12 -19
-15 -36 -9 -45 -24 -36 -36 20 -17 81 -14 127 11 152 27 27 39 6 12 -23 -9
-10 -15 -21 -12 -24 8 -9 38 31 48 64 8 29 7 31 -15 25 -24 -6 -43 10 -25 21
20 12 11 64 -14 80 -35 23 -80 16 -84 -13 -2 -13 3 -24 12 -28 25 -10 7 -26
-22 -20 -22 5 -31 0 -47 -27 -11 -17 -27 -32 -35 -32 -8 0 -24 15 -35 32 -16
27 -25 32 -47 27 -29 -6 -47 10 -22 20 9 4 14 15 12 28 -4 29 -49 36 -84 13
-25 -16 -34 -68 -14 -80 18 -11 -1 -27 -26 -21 -22 6 -23 5 -12 -26 12 -36 38
-71 46 -63 3 3 -3 14 -12 24 -27 29 -15 50 12 23 25 -25 29 -84 11 -158 -13
-51 -27 -57 -36 -14 -3 17 -10 33 -15 36 -5 3 3 17 17 30 l27 25 -27 21 c-82
65 -68 199 25 235 32 13 40 21 40 41 0 21 3 23 26 18 19 -5 33 0 55 19 17 14
43 25 59 25 16 0 42 -11 59 -25z m-948 -34 c21 -16 22 -22 11 -45 -19 -42 -82
-30 -82 15 0 18 25 49 40 49 4 0 18 -8 31 -19z m155 -17 c8 -30 -11 -54 -40
-54 -46 0 -62 48 -25 73 27 20 58 10 65 -19z m125 26 c37 -20 18 -80 -26 -80
-46 0 -60 48 -23 74 27 19 24 19 49 6z m140 0 c38 -21 18 -80 -28 -80 -53 0
-49 76 5 89 2 1 12 -4 23 -9z m140 0 c23 -13 26 -68 4 -76 -49 -19 -90 31 -54
67 22 22 24 22 50 9z m710 0 c38 -21 18 -80 -28 -80 -53 0 -49 76 5 89 2 1 12
-4 23 -9z m148 -9 c36 -36 -5 -86 -54 -67 -21 8 -19 62 3 75 24 14 29 14 51
-8z m130 9 c25 -13 33 -37 21 -61 -12 -21 -50 -25 -68 -7 -18 18 -15 55 6 67
21 13 20 13 41 1z m149 -6 c37 -26 23 -74 -23 -74 -42 0 -59 44 -29 74 19 20
24 20 52 0z m160 -28 c8 -39 -52 -63 -78 -31 -16 19 -5 62 18 68 22 5 56 -16
60 -37z m-1860 -112 c28 -19 28 -48 1 -68 -47 -33 -94 28 -53 68 19 20 24 20
52 0z m157 -34 c0 -12 -9 -29 -20 -36 -18 -12 -24 -11 -43 2 -12 8 -22 24 -22
34 0 10 10 26 22 34 19 13 25 14 43 2 11 -7 20 -24 20 -36z m140 19 c11 -16
-3 -56 -21 -63 -23 -9 -64 20 -64 44 0 27 38 52 61 39 10 -5 21 -14 24 -20z
m143 -15 c3 -18 -2 -32 -14 -41 -24 -17 -30 -17 -54 7 -25 25 -25 35 0 60 27
27 64 13 68 -26z m992 16 c20 -38 -22 -80 -60 -60 -29 16 -27 68 3 79 27 10
44 4 57 -19z m140 0 c20 -38 -22 -80 -60 -60 -29 16 -27 68 3 79 27 10 44 4
57 -19z m148 -18 c4 -25 -37 -56 -62 -46 -9 3 -19 18 -23 32 -4 19 -1 30 17
44 20 16 25 17 44 5 12 -8 22 -24 24 -35z m137 -2 c0 -12 -9 -29 -20 -36 -18
-12 -24 -11 -43 2 -12 8 -22 24 -22 34 0 10 10 26 22 34 19 13 25 14 43 2 11
-7 20 -24 20 -36z m-1023 -63 c54 10 34 -14 -28 -34 -35 -12 -64 -18 -64 -13
0 4 7 25 16 46 16 38 16 38 33 17 12 -15 25 -19 43 -16z m193 -3 c8 -20 15
-40 15 -44 0 -5 -29 1 -64 13 -63 20 -82 45 -27 34 20 -4 30 0 39 14 16 26 19
25 37 -17z m-413 -2 c-6 -2 -16 -19 -23 -39 -9 -30 -9 -38 5 -52 16 -15 18
-15 32 3 14 19 14 19 14 -1 0 -12 -5 -25 -11 -29 -8 -4 -8 -9 0 -17 6 -6 11
-18 11 -26 0 -8 7 -22 15 -31 14 -15 14 -18 0 -30 -8 -7 -15 -21 -15 -31 0
-10 -5 -21 -11 -25 -8 -4 -8 -9 0 -17 6 -6 11 -20 11 -31 0 -20 0 -20 -14 0
-14 18 -16 18 -32 3 -14 -14 -14 -22 -5 -52 7 -20 17 -37 23 -39 6 -2 9 -10 6
-18 -3 -11 -11 -7 -32 14 -25 24 -28 33 -24 76 3 27 1 47 -4 44 -17 -11 -28 7
-16 26 10 16 9 23 -10 43 l-22 23 23 22 c18 19 20 25 10 42 -13 19 -2 37 15
26 5 -3 7 17 4 44 -4 43 -1 52 24 76 21 21 29 25 32 14 3 -8 0 -16 -6 -18z
m599 -14 c6 -11 9 -40 6 -64 -2 -24 -1 -41 4 -38 18 11 29 -7 16 -26 -10 -17
-8 -23 10 -42 l23 -22 -22 -23 c-19 -20 -20 -27 -10 -43 12 -19 1 -37 -16 -26
-5 3 -7 -17 -4 -44 4 -43 1 -52 -24 -76 -21 -21 -29 -25 -32 -14 -3 8 0 16 6
18 6 2 16 19 23 39 9 30 9 38 -5 52 -16 15 -18 15 -32 -3 -14 -19 -14 -19 -14
1 0 12 5 25 11 29 8 4 8 9 0 17 -6 6 -11 19 -11 28 0 9 -7 22 -15 29 -14 12
-14 15 0 30 8 9 15 24 15 33 0 9 5 19 11 23 8 4 8 9 0 17 -6 6 -11 20 -11 31
0 20 0 20 14 0 14 -18 16 -18 32 -3 14 15 15 22 4 53 -6 20 -16 36 -21 36 -5
0 -9 7 -9 15 0 21 35 3 51 -27z m-1199 -43 c10 -22 9 -29 -10 -47 -18 -19 -25
-20 -47 -10 -16 8 -25 20 -25 35 0 50 62 66 82 22z m138 10 c15 -19 6 -61 -16
-69 -27 -10 -53 3 -60 30 -8 30 11 54 41 54 12 0 28 -7 35 -15z m138 3 c32
-32 -4 -87 -48 -73 -25 8 -37 50 -20 70 15 18 51 20 68 3z m140 0 c30 -30 2
-86 -37 -73 -33 10 -45 32 -33 60 13 27 49 34 70 13z m1001 -10 c16 -42 -32
-85 -64 -58 -18 15 -20 66 -2 73 30 13 58 6 66 -15z m143 -3 c9 -21 8 -28 -7
-45 -31 -34 -75 -20 -75 25 0 48 62 63 82 20z m138 10 c15 -19 6 -61 -16 -69
-27 -10 -53 3 -60 30 -8 30 11 54 41 54 12 0 28 -7 35 -15z m140 0 c15 -19 6
-61 -16 -69 -27 -10 -53 3 -60 30 -8 30 11 54 41 54 12 0 28 -7 35 -15z m-939
-44 c9 -43 15 -47 36 -23 22 25 63 39 63 21 0 -7 -14 -27 -31 -45 l-30 -31 32
-7 c69 -14 71 -49 2 -62 l-34 -7 30 -31 c17 -18 31 -37 31 -44 0 -20 -30 -13
-57 14 -29 29 -33 27 -42 -18 -4 -19 -13 -33 -21 -33 -8 0 -17 14 -21 33 -9
45 -13 47 -42 18 -26 -26 -57 -35 -57 -16 0 5 14 25 30 44 l30 34 -34 6 c-68
13 -66 49 3 62 l32 7 -30 31 c-17 18 -31 38 -31 45 0 18 41 4 63 -22 15 -17
20 -19 28 -6 5 7 9 23 9 35 0 46 31 43 41 -5z m-901 -101 c15 -29 3 -59 -26
-66 -30 -8 -54 11 -54 40 0 46 59 64 80 26z m140 0 c21 -40 -9 -78 -51 -65
-24 8 -35 50 -19 70 18 22 57 19 70 -5z m138 8 c27 -27 7 -78 -29 -78 -21 0
-49 26 -49 45 0 35 53 58 78 33z m140 0 c26 -26 8 -78 -27 -78 -18 0 -51 29
-51 46 0 34 54 56 78 32z m996 -10 c13 -19 14 -25 2 -43 -26 -39 -76 -26 -76
19 0 46 48 62 74 24z m140 6 c20 -20 20 -33 -1 -56 -29 -32 -73 -16 -73 27 0
42 44 59 74 29z m140 0 c9 -8 16 -22 16 -29 0 -7 -7 -21 -16 -29 -30 -30 -74
-13 -74 29 0 42 44 59 74 29z m146 1 c15 -19 6 -61 -16 -69 -42 -16 -75 24
-54 64 13 24 52 27 70 5z m-1131 -95 c17 -81 14 -127 -11 -152 -27 -27 -39 -6
-12 23 9 10 15 22 12 25 -7 7 -43 -44 -52 -74 -7 -20 -5 -22 17 -17 25 7 46
-9 27 -20 -5 -3 -10 -19 -10 -35 0 -34 31 -60 72 -60 34 0 50 37 24 56 -21 15
-4 28 27 21 17 -4 27 2 42 26 26 40 44 40 70 0 15 -24 25 -30 42 -26 32 7 48
-6 26 -22 -14 -11 -16 -18 -7 -32 26 -43 104 -16 104 37 0 16 -5 32 -10 35
-18 11 2 27 26 21 13 -4 24 -4 24 -1 0 12 -40 84 -50 90 -15 10 -12 -6 6 -26
25 -28 12 -47 -14 -21 -25 25 -28 71 -11 152 12 56 27 65 36 20 3 -17 10 -33
15 -36 5 -3 -3 -17 -17 -30 l-27 -25 27 -21 c82 -65 68 -199 -25 -235 -34 -13
-40 -21 -40 -44 0 -27 -2 -28 -24 -17 -21 9 -29 7 -56 -16 -40 -33 -80 -33
-120 0 -27 23 -35 25 -56 16 -22 -11 -24 -10 -24 17 0 23 -6 31 -40 44 -93 36
-107 170 -25 235 l27 21 -27 25 c-14 13 -22 27 -17 30 5 3 12 19 15 36 9 45
24 36 36 -20z m-709 -50 c15 -29 3 -59 -26 -66 -30 -8 -54 11 -54 40 0 46 59
64 80 26z m140 0 c15 -29 3 -59 -26 -66 -30 -8 -54 11 -54 40 0 46 59 64 80
26z m138 8 c15 -15 15 -51 0 -66 -18 -18 -56 -14 -68 7 -14 27 -13 37 6 55 18
19 45 21 62 4z m140 0 c27 -27 7 -78 -29 -78 -21 0 -49 26 -49 45 0 35 53 58
78 33z m996 -10 c13 -19 14 -25 2 -43 -26 -39 -76 -26 -76 19 0 46 48 62 74
24z m140 6 c9 -8 16 -22 16 -29 0 -7 -7 -21 -16 -29 -30 -30 -74 -13 -74 29 0
42 44 59 74 29z m140 0 c19 -18 20 -28 6 -55 -20 -37 -80 -18 -80 26 0 42 44
59 74 29z m144 4 c17 -17 15 -53 -3 -68 -20 -17 -62 -5 -70 20 -14 44 41 80
73 48z m-985 -91 c-3 -5 -17 -7 -31 -4 -18 3 -31 -1 -43 -16 -17 -21 -17 -21
-33 17 -9 21 -16 42 -16 46 0 5 29 -1 64 -13 36 -11 62 -25 59 -30z m161 -2
l-16 -40 -18 23 c-11 13 -24 20 -34 16 -9 -3 -24 -3 -33 1 -13 5 -1 13 47 30
36 12 66 19 68 15 1 -3 -5 -24 -14 -45z m-1019 -55 c37 -41 -24 -97 -63 -58
-18 18 -15 55 6 67 25 15 37 13 57 -9z m139 4 c30 -30 13 -74 -29 -74 -42 0
-59 44 -29 74 8 9 22 16 29 16 7 0 21 -7 29 -16z m137 6 c37 -20 18 -80 -26
-80 -42 0 -59 44 -29 74 18 19 28 20 55 6z m147 -2 c7 -7 12 -21 12 -33 0 -49
-62 -63 -82 -19 -11 23 -10 29 11 45 27 22 42 24 59 7z m991 -7 c13 -13 17
-27 14 -41 -7 -26 -25 -34 -58 -26 -19 5 -25 13 -25 34 0 50 35 67 69 33z
m146 -1 c15 -17 16 -24 7 -45 -20 -43 -82 -28 -82 20 0 45 44 59 75 25z m139
4 c30 -30 13 -74 -29 -74 -60 0 -59 88 2 90 6 0 19 -7 27 -16z m140 0 c30 -30
13 -74 -29 -74 -42 0 -59 44 -29 74 8 9 22 16 29 16 7 0 21 -7 29 -16z m-1828
-159 c16 -40 -48 -74 -76 -40 -16 19 -5 62 18 68 21 4 51 -10 58 -28z m142 -9
c5 -23 -16 -46 -42 -46 -46 0 -62 48 -24 74 19 13 25 14 43 2 11 -7 21 -21 23
-30z m126 28 c30 -30 13 -74 -29 -74 -46 0 -60 48 -23 74 28 20 33 20 52 0z
m140 3 c12 -9 17 -23 14 -42 -2 -25 -8 -31 -33 -33 -19 -3 -33 2 -42 14 -17
24 -17 30 7 54 24 24 30 24 54 7z m140 0 c12 -9 17 -23 14 -42 -3 -27 -7 -30
-38 -30 -31 0 -35 3 -38 30 -3 26 17 55 38 55 3 0 14 -6 24 -13z m724 -26 c7
-47 -56 -72 -78 -31 -12 22 0 55 22 63 23 8 53 -10 56 -32z m132 19 c30 -30
13 -65 -31 -65 -30 0 -34 3 -37 30 -3 19 2 33 14 42 24 17 31 16 54 -7z m140
0 c24 -24 24 -30 7 -54 -9 -12 -23 -17 -42 -14 -25 2 -31 8 -33 33 -3 19 2 33
14 42 24 17 30 17 54 -7z m138 4 c37 -26 23 -74 -23 -74 -42 0 -59 44 -29 74
19 20 24 20 52 0z m160 -28 c5 -23 -16 -46 -42 -46 -46 0 -62 48 -24 74 19 13
25 14 43 2 11 -7 21 -21 23 -30z m-1848 -125 c12 -24 4 -48 -20 -61 -37 -20
-69 16 -55 60 9 27 60 27 75 1z m140 4 c16 -19 10 -45 -15 -61 -39 -26 -86 31
-53 64 16 16 53 15 68 -3z m140 0 c16 -19 10 -45 -15 -61 -39 -26 -86 31 -53
64 16 16 53 15 68 -3z m138 3 c20 -20 14 -58 -10 -67 -42 -16 -78 22 -58 60
12 21 50 25 68 7z m150 -26 c3 -26 -1 -34 -20 -41 -33 -12 -58 4 -58 38 0 36
8 43 45 39 26 -3 30 -7 33 -36z m142 18 c21 -38 -22 -80 -61 -60 -19 10 -27
59 -12 73 15 15 63 7 73 -13z m425 0 c15 -49 -21 -81 -61 -55 -27 17 -29 27
-14 56 15 26 66 26 75 -1z m143 -17 c4 -38 -25 -60 -57 -44 -47 25 -30 84 22
79 28 -3 32 -7 35 -35z m142 18 c20 -38 -16 -76 -57 -60 -17 6 -23 16 -23 37
0 36 6 42 41 42 18 0 32 -7 39 -19z m140 0 c20 -38 -16 -76 -57 -60 -25 9 -31
47 -11 67 18 18 56 14 68 -7z m140 4 c16 -19 10 -45 -15 -61 -39 -26 -86 31
-53 64 16 16 53 15 68 -3z m140 0 c16 -19 10 -45 -15 -61 -39 -26 -86 31 -53
64 16 16 53 15 68 -3z m-1838 -150 c9 -21 8 -28 -7 -45 -31 -34 -75 -20 -75
25 0 48 62 63 82 20z m138 10 c15 -19 6 -61 -16 -69 -27 -10 -53 3 -60 30 -8
30 11 54 41 54 12 0 28 -7 35 -15z m138 3 c32 -32 -4 -87 -48 -73 -25 8 -37
50 -20 70 15 18 51 20 68 3z m140 0 c21 -21 14 -57 -13 -70 -22 -10 -29 -9
-47 10 -19 18 -20 25 -10 47 13 27 49 34 70 13z m150 -25 c3 -27 -1 -35 -24
-45 -23 -11 -28 -10 -45 10 -29 36 -6 75 41 70 20 -3 26 -9 28 -35z m142 17
c21 -39 -32 -87 -65 -60 -18 15 -19 52 -3 68 19 19 56 14 68 -8z m142 -5 c9
-21 8 -28 -7 -45 -31 -34 -75 -20 -75 25 0 48 62 63 82 20z m138 10 c15 -19 6
-61 -16 -69 -27 -10 -53 3 -60 30 -8 30 11 54 41 54 12 0 28 -7 35 -15z m138
3 c26 -26 7 -78 -28 -78 -9 0 -25 9 -35 20 -37 41 24 97 63 58z m140 0 c16
-16 15 -53 -3 -68 -18 -15 -52 -4 -65 21 -23 41 34 81 68 47z m138 4 c21 -14
23 -41 5 -64 -16 -20 -22 -21 -45 -10 -19 8 -26 19 -26 40 0 16 3 32 7 35 9 9
45 9 59 -1z m156 -17 c10 -22 9 -29 -10 -47 -18 -19 -25 -20 -47 -10 -16 8
-25 20 -25 35 0 50 62 66 82 22z m138 10 c17 -20 5 -62 -20 -70 -44 -14 -80
41 -48 73 17 17 53 15 68 -3z m140 0 c15 -19 6 -61 -16 -69 -27 -10 -53 3 -60
30 -8 30 11 54 41 54 12 0 28 -7 35 -15z m-1840 -145 c15 -29 3 -59 -26 -66
-30 -8 -54 11 -54 40 0 46 59 64 80 26z m140 0 c15 -29 3 -59 -26 -66 -30 -8
-54 11 -54 40 0 46 59 64 80 26z m138 8 c15 -15 15 -51 0 -66 -18 -18 -56 -14
-68 7 -14 27 -13 37 6 55 18 19 45 21 62 4z m140 0 c27 -27 7 -78 -29 -78 -21
0 -49 26 -49 45 0 35 53 58 78 33z m140 0 c16 -16 15 -53 -3 -68 -19 -16 -45
-10 -61 15 -26 39 31 86 64 53z m146 -4 c9 -8 16 -22 16 -29 0 -7 -7 -21 -16
-29 -30 -30 -74 -13 -74 29 0 42 44 59 74 29z m146 -4 c15 -29 3 -59 -26 -66
-30 -8 -54 11 -54 40 0 46 59 64 80 26z m131 10 c23 -13 25 -53 3 -70 -22 -19
-68 -1 -72 28 -6 43 28 64 69 42z m147 -2 c17 -17 15 -53 -3 -68 -20 -17 -62
-5 -70 20 -14 44 41 80 73 48z m140 0 c26 -26 7 -78 -27 -78 -23 0 -37 12 -45
36 -12 40 43 71 72 42z m146 -10 c13 -19 14 -25 2 -43 -26 -39 -76 -26 -76 19
0 46 48 62 74 24z m140 6 c9 -8 16 -22 16 -29 0 -7 -7 -21 -16 -29 -30 -30
-74 -13 -74 29 0 42 44 59 74 29z m140 0 c19 -18 20 -28 6 -55 -20 -37 -80
-18 -80 26 0 42 44 59 74 29z m144 4 c17 -17 15 -53 -3 -68 -20 -17 -62 -5
-70 20 -14 44 41 80 73 48z m-1844 -147 c23 -25 13 -59 -20 -67 -30 -8 -54 11
-54 40 0 45 44 61 74 27z m140 3 c9 -8 16 -22 16 -29 0 -7 -7 -21 -16 -29 -30
-30 -74 -13 -74 29 0 42 44 59 74 29z m137 6 c21 -12 25 -50 7 -68 -18 -18
-56 -14 -68 7 -14 27 -13 37 6 55 18 19 28 20 55 6z m147 -2 c27 -27 7 -78
-29 -78 -21 0 -49 26 -49 45 0 35 53 58 78 33z m140 0 c16 -16 15 -53 -3 -68
-19 -16 -45 -10 -61 15 -26 39 31 86 64 53z m147 -12 c19 -29 10 -54 -21 -62
-30 -8 -54 11 -54 40 0 47 49 62 75 22z m139 8 c9 -8 16 -22 16 -29 0 -7 -7
-21 -16 -29 -30 -30 -74 -13 -74 29 0 42 44 59 74 29z m137 6 c23 -13 25 -53
3 -70 -21 -19 -68 -1 -72 26 -3 22 21 54 39 54 6 0 19 -5 30 -10z m147 -2 c27
-27 7 -78 -29 -78 -21 0 -49 26 -49 45 0 35 53 58 78 33z m140 0 c17 -17 15
-53 -3 -68 -20 -17 -61 -5 -68 19 -11 42 42 78 71 49z m146 -10 c13 -19 14
-25 2 -43 -26 -39 -76 -26 -76 19 0 46 48 62 74 24z m140 6 c9 -8 16 -22 16
-29 0 -7 -7 -21 -16 -29 -30 -30 -74 -13 -74 29 0 42 44 59 74 29z m140 0 c19
-18 20 -28 6 -55 -21 -38 -80 -18 -80 28 0 38 47 55 74 27z m144 4 c27 -27 7
-78 -29 -78 -21 0 -49 26 -49 45 0 35 53 58 78 33z m-1843 -148 c37 -41 -24
-97 -63 -58 -18 18 -15 55 6 67 25 15 37 13 57 -9z m139 4 c30 -30 13 -74 -29
-74 -42 0 -59 44 -29 74 8 9 22 16 29 16 7 0 21 -7 29 -16z m137 6 c37 -20 18
-80 -26 -80 -42 0 -59 44 -29 74 18 19 28 20 55 6z m147 -2 c7 -7 12 -21 12
-33 0 -49 -62 -63 -82 -19 -11 23 -10 29 11 45 27 22 42 24 59 7z m140 0 c7
-7 12 -25 12 -40 0 -46 -71 -53 -83 -8 -3 14 1 28 14 41 22 22 40 24 57 7z
m147 -12 c21 -31 5 -66 -28 -66 -62 0 -62 88 0 90 7 0 20 -11 28 -24z m139 8
c19 -18 20 -28 6 -55 -21 -38 -80 -18 -80 28 0 38 47 55 74 27z m140 0 c30
-30 13 -74 -29 -74 -42 0 -59 44 -29 74 8 9 22 16 29 16 7 0 21 -7 29 -16z
m137 6 c21 -12 25 -50 7 -68 -18 -18 -56 -14 -68 7 -14 27 -13 37 6 55 18 19
28 20 55 6z m140 0 c21 -12 25 -50 7 -68 -19 -19 -56 -14 -68 9 -9 16 -8 26 5
45 17 27 27 29 56 14z m148 -9 c13 -13 17 -27 14 -41 -7 -26 -25 -34 -58 -26
-19 5 -25 13 -25 34 0 50 35 67 69 33z m146 -1 c15 -17 16 -24 7 -45 -20 -43
-82 -28 -82 20 0 45 44 59 75 25z m139 4 c30 -30 13 -74 -29 -74 -60 0 -59 88
2 90 6 0 19 -7 27 -16z m140 0 c30 -30 13 -74 -29 -74 -42 0 -59 44 -29 74 8
9 22 16 29 16 7 0 21 -7 29 -16z m-1834 -154 c12 -23 4 -47 -20 -60 -24 -13
-48 -3 -55 21 -18 57 48 90 75 39z m145 -20 c0 -12 -9 -29 -20 -36 -18 -12
-24 -11 -43 2 -12 8 -22 24 -22 34 0 10 10 26 22 34 19 13 25 14 43 2 11 -7
20 -24 20 -36z m129 34 c22 -22 20 -50 -6 -68 -19 -13 -25 -14 -43 -2 -29 19
-31 51 -3 70 28 20 33 20 52 0z m140 3 c25 -18 18 -67 -12 -78 -17 -6 -27 -4
-42 11 -25 25 -25 35 0 60 24 24 30 24 54 7z m137 3 c28 -16 26 -68 -3 -79
-33 -12 -58 4 -58 39 0 17 7 33 18 39 21 13 20 13 43 1z m159 -20 c20 -38 -22
-80 -60 -60 -29 16 -27 68 3 79 27 10 44 4 57 -19z m148 -18 c4 -25 -37 -56
-61 -46 -34 13 -33 79 1 87 24 6 56 -16 60 -41z m137 -2 c0 -12 -9 -29 -20
-36 -18 -12 -24 -11 -43 2 -12 8 -22 24 -22 34 0 10 10 26 22 34 19 13 25 14
43 2 11 -7 20 -24 20 -36z m140 19 c8 -26 -2 -56 -22 -63 -22 -9 -63 20 -63
44 0 43 72 60 85 19z m143 -15 c3 -18 -2 -32 -14 -41 -24 -17 -30 -17 -54 7
-25 25 -25 35 0 60 27 27 64 13 68 -26z m132 26 c25 -25 25 -35 0 -60 -15 -15
-25 -17 -42 -11 -30 11 -37 60 -12 78 24 17 30 17 54 -7z m140 0 c25 -25 25
-35 0 -60 -15 -15 -25 -17 -42 -11 -30 11 -37 60 -12 78 24 17 30 17 54 -7z
m138 4 c28 -19 26 -51 -3 -70 -18 -12 -24 -11 -43 2 -26 18 -28 46 -6 68 19
20 24 20 52 0z m160 -31 c2 -10 -6 -27 -17 -37 -19 -18 -22 -18 -46 -2 -31 20
-32 50 -3 70 19 13 25 14 43 2 11 -7 21 -22 23 -33z m-1920 -131 c2 -14 -2
-22 -12 -22 -41 0 -30 -54 22 -112 20 -23 32 -43 26 -45 -6 -2 -20 -10 -30
-18 -18 -13 -17 -14 14 -15 17 0 32 -3 32 -6 0 -4 -16 -24 -35 -45 -39 -43
-47 -89 -17 -89 20 0 54 21 95 58 l27 26 0 -40 c1 -31 3 -36 11 -22 13 22 18
148 7 148 -5 0 -6 -5 -3 -10 9 -15 -31 -75 -78 -115 -39 -34 -67 -45 -67 -26
0 19 48 77 90 110 l45 34 -37 -6 c-41 -6 -52 7 -15 19 20 6 18 9 -20 25 -26
11 -48 29 -57 48 -25 48 -19 55 19 22 20 -17 40 -31 45 -31 4 0 16 -3 25 -7
14 -5 16 -2 11 14 -6 20 -3 21 71 19 l78 -1 1 -78 c1 -70 0 -77 -17 -72 -16 5
-17 2 -9 -26 5 -18 19 -43 31 -56 29 -30 19 -39 -21 -18 -21 11 -38 31 -48 57
-14 36 -17 38 -24 19 -6 -18 -1 -28 28 -54 70 -61 115 -71 127 -26 6 24 25 21
41 -5 9 -14 6 -21 -14 -38 -32 -26 -104 -21 -149 12 -18 12 -34 21 -35 19 -2
-2 -9 -15 -16 -28 -12 -24 -13 -24 -26 -6 -8 10 -14 27 -14 38 0 16 -5 15 -38
-11 -117 -93 -187 -10 -84 101 24 25 24 27 6 27 -11 0 -29 6 -39 14 -18 13
-17 14 8 31 l27 17 -22 30 c-30 42 -36 122 -12 149 22 25 48 21 52 -9z m212
13 c17 -20 5 -61 -19 -68 -25 -6 -61 19 -61 42 0 38 55 56 80 26z m138 3 c19
-19 14 -56 -9 -68 -16 -9 -26 -8 -45 5 -39 26 -26 75 21 75 12 0 26 -5 33 -12z
m140 0 c19 -19 14 -56 -8 -68 -38 -21 -80 22 -60 61 12 21 50 25 68 7z m150
-25 c2 -24 -2 -34 -17 -43 -23 -12 -60 1 -62 23 -4 41 12 59 51 55 20 -2 26
-9 28 -35z m142 18 c20 -39 -22 -82 -60 -61 -22 12 -27 49 -8 68 18 18 56 14
68 -7z m140 0 c5 -11 10 -24 10 -30 0 -17 -46 -42 -64 -35 -22 8 -31 50 -16
69 18 21 57 19 70 -4z m138 7 c29 -29 -7 -82 -49 -71 -24 7 -36 48 -19 68 15
18 51 20 68 3z m142 -3 c15 -19 6 -61 -16 -69 -18 -7 -64 18 -64 35 0 42 54
65 80 34z m138 3 c19 -19 14 -56 -8 -68 -38 -21 -80 22 -60 61 12 21 50 25 68
7z m139 4 c11 -7 16 -26 14 -49 -2 -21 -39 -35 -61 -23 -20 10 -28 58 -13 73
9 9 45 9 60 -1z m153 -11 c20 -39 -22 -82 -60 -61 -22 12 -27 49 -8 68 18 18
56 14 68 -7z m138 7 c33 -33 -16 -91 -57 -68 -39 20 -21 80 24 80 12 0 26 -5
33 -12z m216 -10 c28 -39 16 -110 -26 -155 l-20 -21 28 -14 c34 -17 33 -31 -4
-42 l-29 -8 33 -50 c35 -52 42 -86 22 -106 -26 -26 -80 -11 -130 35 l-26 25
-7 -31 c-9 -44 -22 -47 -43 -11 -18 28 -20 29 -33 14 -34 -41 -128 -57 -161
-27 -21 19 -24 49 -5 56 18 6 37 -3 37 -18 0 -38 68 -19 128 35 29 27 31 33
21 53 -12 22 -13 22 -21 -10 -9 -34 -59 -83 -86 -83 -13 0 -12 4 5 23 45 49
58 103 23 92 -19 -6 -20 -4 -13 22 4 15 7 51 7 78 l-1 50 42 -3 c23 -2 58 1
78 6 36 10 37 10 31 -14 -3 -13 -3 -24 0 -24 21 0 76 31 90 51 15 23 16 23 16
3 0 -29 -33 -69 -71 -84 l-31 -13 24 -14 c21 -13 20 -13 -26 -11 -36 3 -44 1
-31 -7 55 -32 92 -66 110 -98 10 -20 16 -39 13 -43 -13 -12 -79 39 -111 86
l-32 47 2 -56 c2 -73 1 -71 13 -71 6 0 10 14 10 31 l0 31 46 -41 c50 -44 94
-55 94 -23 0 20 -21 54 -58 95 l-26 27 32 0 c18 0 32 5 32 10 0 6 -6 10 -14
10 -27 0 -28 21 -3 48 50 55 65 122 27 122 -13 0 -20 7 -20 18 0 39 40 44 64
10z m-1636 -130 c32 -32 -4 -87 -48 -73 -25 8 -37 50 -20 70 15 18 51 20 68 3z
m140 0 c21 -21 14 -57 -13 -70 -22 -10 -29 -9 -47 10 -19 18 -20 25 -10 47 13
27 49 34 70 13z m140 0 c21 -21 14 -57 -14 -70 -23 -11 -29 -10 -45 10 -35 44
20 99 59 60z m146 -4 c21 -20 20 -30 -4 -54 -33 -33 -70 -19 -70 25 0 42 44
59 74 29z m148 -9 c9 -21 8 -28 -7 -45 -31 -34 -75 -20 -75 25 0 48 62 63 82
20z m138 10 c15 -19 6 -61 -16 -69 -42 -16 -82 35 -54 69 16 19 54 19 70 0z
m138 3 c26 -26 7 -78 -28 -78 -9 0 -25 9 -35 20 -37 41 24 97 63 58z m140 0
c25 -25 8 -78 -25 -78 -15 0 -53 35 -53 49 0 16 30 41 49 41 9 0 22 -5 29 -12z
m138 4 c21 -14 23 -41 5 -64 -16 -20 -22 -21 -45 -10 -17 8 -26 19 -26 35 0
38 36 60 66 39z m156 -17 c10 -22 9 -29 -10 -47 -18 -19 -25 -20 -47 -10 -44
20 -28 82 22 82 15 0 27 -9 35 -25z m-1144 -127 c27 -27 7 -78 -29 -78 -21 0
-49 26 -49 45 0 35 53 58 78 33z m140 0 c16 -16 15 -53 -3 -68 -19 -16 -45
-10 -61 15 -26 39 31 86 64 53z m146 -4 c9 -8 16 -22 16 -29 0 -7 -7 -21 -16
-29 -30 -30 -74 -13 -74 29 0 42 44 59 74 29z m146 -4 c15 -29 3 -59 -26 -66
-30 -8 -54 11 -54 40 0 46 59 64 80 26z m131 10 c23 -13 25 -53 3 -70 -22 -19
-68 -1 -72 28 -6 43 28 64 69 42z m147 -2 c17 -17 15 -53 -3 -68 -20 -17 -62
-5 -70 20 -14 44 41 80 73 48z m140 0 c26 -26 7 -78 -27 -78 -23 0 -37 12 -45
36 -12 40 43 71 72 42z m146 -10 c13 -19 14 -25 2 -43 -26 -39 -76 -26 -76 19
0 46 48 62 74 24z"/>
<path d="M933 3994 c-20 -22 -20 -24 -3 -24 10 0 20 10 23 22 8 30 5 31 -20 2z"/>
<path d="M2450 3997 c0 -21 5 -27 22 -27 21 0 21 0 2 23 -10 12 -20 24 -21 26
-2 2 -3 -8 -3 -22z"/>
<path d="M1185 4150 c-10 -17 12 -37 25 -24 8 8 6 15 -4 23 -10 9 -16 9 -21 1z"/>
<path d="M1325 4141 c-7 -12 12 -24 25 -16 11 7 4 25 -10 25 -5 0 -11 -4 -15
-9z"/>
<path d="M1465 4141 c-7 -12 12 -24 25 -16 11 7 4 25 -10 25 -5 0 -11 -4 -15
-9z"/>
<path d="M1615 4150 c-4 -6 -3 -16 3 -22 6 -6 12 -6 17 2 4 6 3 16 -3 22 -6 6
-12 6 -17 -2z"/>
<path d="M1755 4150 c-4 -6 -3 -16 3 -22 6 -6 12 -6 17 2 4 6 3 16 -3 22 -6 6
-12 6 -17 -2z"/>
<path d="M1895 4150 c-7 -12 2 -30 16 -30 12 0 12 27 0 35 -5 3 -12 1 -16 -5z"/>
<path d="M2035 4141 c-7 -12 12 -24 25 -16 11 7 4 25 -10 25 -5 0 -11 -4 -15
-9z"/>
<path d="M2175 4141 c-7 -12 12 -24 25 -16 11 7 4 25 -10 25 -5 0 -11 -4 -15
-9z"/>
<path d="M1042 3998 c6 -18 28 -21 28 -4 0 9 -7 16 -16 16 -9 0 -14 -5 -12
-12z"/>
<path d="M1185 4001 c-7 -12 12 -24 25 -16 11 7 4 25 -10 25 -5 0 -11 -4 -15
-9z"/>
<path d="M1325 4001 c-7 -12 12 -24 25 -16 11 7 4 25 -10 25 -5 0 -11 -4 -15
-9z"/>
<path d="M1465 4001 c-7 -12 12 -24 25 -16 11 7 4 25 -10 25 -5 0 -11 -4 -15
-9z"/>
<path d="M1612 4001 c2 -7 7 -12 11 -12 12 1 9 15 -3 20 -7 2 -11 -2 -8 -8z"/>
<path d="M1752 3999 c2 -6 8 -10 13 -10 5 0 11 4 13 10 2 6 -4 11 -13 11 -9 0
-15 -5 -13 -11z"/>
<path d="M1897 4004 c-8 -8 1 -24 14 -24 5 0 9 7 9 15 0 15 -12 20 -23 9z"/>
<path d="M2035 4001 c-7 -12 12 -24 25 -16 11 7 4 25 -10 25 -5 0 -11 -4 -15
-9z"/>
<path d="M2175 4001 c-7 -12 12 -24 25 -16 11 7 4 25 -10 25 -5 0 -11 -4 -15
-9z"/>
<path d="M2315 4001 c-7 -12 12 -24 25 -16 11 7 4 25 -10 25 -5 0 -11 -4 -15
-9z"/>
<path d="M900 3856 c0 -9 7 -16 16 -16 9 0 14 5 12 12 -6 18 -28 21 -28 4z"/>
<path d="M1046 3862 c-3 -6 -1 -14 5 -17 15 -10 25 3 12 16 -7 7 -13 7 -17 1z"/>
<path d="M1185 3861 c-7 -12 12 -24 25 -16 11 7 4 25 -10 25 -5 0 -11 -4 -15
-9z"/>
<path d="M1325 3861 c-7 -12 12 -24 25 -16 11 7 4 25 -10 25 -5 0 -11 -4 -15
-9z"/>
<path d="M1465 3861 c-7 -12 12 -24 25 -16 11 7 4 25 -10 25 -5 0 -11 -4 -15
-9z"/>
<path d="M1610 3856 c0 -9 7 -16 16 -16 9 0 14 5 12 12 -6 18 -28 21 -28 4z"/>
<path d="M1756 3863 c-11 -11 -6 -23 9 -23 8 0 15 4 15 9 0 13 -16 22 -24 14z"/>
<path d="M1897 3863 c-12 -11 -8 -23 8 -23 8 0 15 7 15 15 0 16 -12 20 -23 8z"/>
<path d="M2035 3861 c-7 -12 12 -24 25 -16 11 7 4 25 -10 25 -5 0 -11 -4 -15
-9z"/>
<path d="M2175 3861 c-7 -12 12 -24 25 -16 11 7 4 25 -10 25 -5 0 -11 -4 -15
-9z"/>
<path d="M2315 3861 c-7 -12 12 -24 25 -16 11 7 4 25 -10 25 -5 0 -11 -4 -15
-9z"/>
<path d="M2465 3859 c-10 -15 3 -25 16 -12 7 7 7 13 1 17 -6 3 -14 1 -17 -5z"/>
<path d="M765 3720 c-4 -6 -3 -16 3 -22 6 -6 12 -6 17 2 4 6 3 16 -3 22 -6 6
-12 6 -17 -2z"/>
<path d="M905 3720 c-4 -6 -3 -16 3 -22 6 -6 12 -6 17 2 4 6 3 16 -3 22 -6 6
-12 6 -17 -2z"/>
<path d="M1045 3720 c-4 -6 -3 -16 3 -22 6 -6 12 -6 17 2 4 6 3 16 -3 22 -6 6
-12 6 -17 -2z"/>
<path d="M1185 3720 c-4 -6 -3 -16 3 -22 6 -6 12 -6 17 2 4 6 3 16 -3 22 -6 6
-12 6 -17 -2z"/>
<path d="M1325 3721 c-7 -12 12 -24 25 -16 11 7 4 25 -10 25 -5 0 -11 -4 -15
-9z"/>
<path d="M1466 3721 c-3 -5 1 -14 8 -20 16 -13 32 2 21 19 -8 12 -22 13 -29 1z"/>
<path d="M1615 3720 c-4 -6 -3 -16 3 -22 6 -6 12 -6 17 2 4 6 3 16 -3 22 -6 6
-12 6 -17 -2z"/>
<path d="M1755 3720 c-4 -6 -3 -16 3 -22 6 -6 12 -6 17 2 4 6 3 16 -3 22 -6 6
-12 6 -17 -2z"/>
<path d="M1895 3720 c-4 -6 -3 -16 3 -22 6 -6 12 -6 17 2 4 6 3 16 -3 22 -6 6
-12 6 -17 -2z"/>
<path d="M2037 3724 c-3 -3 -3 -12 0 -20 4 -11 9 -12 19 -3 8 6 11 15 8 20 -6
10 -18 12 -27 3z"/>
<path d="M2175 3721 c-7 -12 12 -24 25 -16 11 7 4 25 -10 25 -5 0 -11 -4 -15
-9z"/>
<path d="M2325 3720 c-4 -6 -3 -16 3 -22 6 -6 12 -6 17 2 4 6 3 16 -3 22 -6 6
-12 6 -17 -2z"/>
<path d="M2465 3720 c-4 -6 -3 -16 3 -22 6 -6 12 -6 17 2 4 6 3 16 -3 22 -6 6
-12 6 -17 -2z"/>
<path d="M2605 3720 c-4 -6 -3 -16 3 -22 6 -6 12 -6 17 2 4 6 3 16 -3 22 -6 6
-12 6 -17 -2z"/>
<path d="M765 3580 c-4 -6 -3 -16 3 -22 6 -6 12 -6 17 2 4 6 3 16 -3 22 -6 6
-12 6 -17 -2z"/>
<path d="M905 3580 c-4 -6 -3 -16 3 -22 6 -6 12 -6 17 2 4 6 3 16 -3 22 -6 6
-12 6 -17 -2z"/>
<path d="M1045 3580 c-4 -6 -3 -16 3 -22 6 -6 12 -6 17 2 4 6 3 16 -3 22 -6 6
-12 6 -17 -2z"/>
<path d="M1185 3580 c-4 -6 -3 -16 3 -22 6 -6 12 -6 17 2 4 6 3 16 -3 22 -6 6
-12 6 -17 -2z"/>
<path d="M1324 3579 c-10 -17 13 -36 27 -22 12 12 4 33 -11 33 -5 0 -12 -5
-16 -11z"/>
<path d="M1472 3576 c1 -10 8 -17 13 -17 15 1 12 24 -3 29 -9 3 -13 -2 -10
-12z"/>
<path d="M1615 3580 c-4 -6 -3 -16 3 -22 6 -6 12 -6 17 2 4 6 3 16 -3 22 -6 6
-12 6 -17 -2z"/>
<path d="M1755 3580 c-4 -6 -3 -16 3 -22 6 -6 12 -6 17 2 4 6 3 16 -3 22 -6 6
-12 6 -17 -2z"/>
<path d="M1895 3580 c-4 -6 -3 -16 3 -22 6 -6 12 -6 17 2 4 6 3 16 -3 22 -6 6
-12 6 -17 -2z"/>
<path d="M2035 3580 c-4 -6 -3 -16 3 -22 6 -6 12 -6 17 2 4 6 3 16 -3 22 -6 6
-12 6 -17 -2z"/>
<path d="M2174 3579 c-10 -17 13 -36 27 -22 12 12 4 33 -11 33 -5 0 -12 -5
-16 -11z"/>
<path d="M2325 3580 c-4 -6 -3 -16 3 -22 6 -6 12 -6 17 2 4 6 3 16 -3 22 -6 6
-12 6 -17 -2z"/>
<path d="M2465 3580 c-4 -6 -3 -16 3 -22 6 -6 12 -6 17 2 4 6 3 16 -3 22 -6 6
-12 6 -17 -2z"/>
<path d="M2605 3580 c-4 -6 -3 -16 3 -22 6 -6 12 -6 17 2 4 6 3 16 -3 22 -6 6
-12 6 -17 -2z"/>
<path d="M765 3440 c-4 -6 -3 -16 3 -22 6 -6 12 -6 17 2 4 6 3 16 -3 22 -6 6
-12 6 -17 -2z"/>
<path d="M905 3440 c-4 -6 -3 -16 3 -22 6 -6 12 -6 17 2 4 6 3 16 -3 22 -6 6
-12 6 -17 -2z"/>
<path d="M1045 3440 c-4 -6 -3 -16 3 -22 6 -6 12 -6 17 2 4 6 3 16 -3 22 -6 6
-12 6 -17 -2z"/>
<path d="M1185 3440 c-7 -12 2 -30 16 -30 12 0 12 27 0 35 -5 3 -12 1 -16 -5z"/>
<path d="M1322 3428 c5 -15 28 -18 29 -3 0 6 -7 12 -17 13 -10 3 -15 -1 -12
-10z"/>
<path d="M1472 3431 c2 -7 7 -12 11 -12 12 1 9 15 -3 20 -7 2 -11 -2 -8 -8z"/>
<path d="M1615 3440 c-4 -6 -3 -16 3 -22 6 -6 12 -6 17 2 4 6 3 16 -3 22 -6 6
-12 6 -17 -2z"/>
<path d="M1755 3440 c-4 -6 -3 -16 3 -22 6 -6 12 -6 17 2 4 6 3 16 -3 22 -6 6
-12 6 -17 -2z"/>
<path d="M1895 3440 c-4 -6 -3 -16 3 -22 6 -6 12 -6 17 2 4 6 3 16 -3 22 -6 6
-12 6 -17 -2z"/>
<path d="M2035 3431 c-6 -11 9 -23 19 -14 9 9 7 23 -3 23 -6 0 -12 -4 -16 -9z"/>
<path d="M2175 3431 c-3 -5 -1 -12 5 -16 12 -7 30 2 30 16 0 12 -27 12 -35 0z"/>
<path d="M2324 3436 c-8 -22 3 -33 18 -18 9 9 9 15 0 24 -9 9 -13 7 -18 -6z"/>
<path d="M2465 3440 c-4 -6 -3 -16 3 -22 6 -6 12 -6 17 2 4 6 3 16 -3 22 -6 6
-12 6 -17 -2z"/>
<path d="M2605 3440 c-4 -6 -3 -16 3 -22 6 -6 12 -6 17 2 4 6 3 16 -3 22 -6 6
-12 6 -17 -2z"/>
<path d="M760 3285 c0 -9 5 -15 11 -13 6 2 11 8 11 13 0 5 -5 11 -11 13 -6 2
-11 -4 -11 -13z"/>
<path d="M902 3289 c2 -6 8 -10 13 -10 5 0 11 4 13 10 2 6 -4 11 -13 11 -9 0
-15 -5 -13 -11z"/>
<path d="M1042 3288 c6 -18 28 -21 28 -4 0 9 -7 16 -16 16 -9 0 -14 -5 -12
-12z"/>
<path d="M1185 3291 c-7 -12 12 -24 25 -16 11 7 4 25 -10 25 -5 0 -11 -4 -15
-9z"/>
<path d="M1325 3291 c-7 -12 12 -24 25 -16 11 7 4 25 -10 25 -5 0 -11 -4 -15
-9z"/>
<path d="M1465 3291 c-7 -12 12 -24 25 -16 11 7 4 25 -10 25 -5 0 -11 -4 -15
-9z"/>
<path d="M1612 3289 c2 -6 8 -10 13 -10 5 0 11 4 13 10 2 6 -4 11 -13 11 -9 0
-15 -5 -13 -11z"/>
<path d="M1752 3289 c2 -6 8 -10 13 -10 5 0 11 4 13 10 2 6 -4 11 -13 11 -9 0
-15 -5 -13 -11z"/>
<path d="M1892 3288 c6 -18 28 -21 28 -4 0 9 -7 16 -16 16 -9 0 -14 -5 -12
-12z"/>
<path d="M2035 3291 c-7 -12 12 -24 25 -16 11 7 4 25 -10 25 -5 0 -11 -4 -15
-9z"/>
<path d="M2175 3291 c-7 -12 12 -24 25 -16 11 7 4 25 -10 25 -5 0 -11 -4 -15
-9z"/>
<path d="M2315 3291 c-7 -12 12 -24 25 -16 11 7 4 25 -10 25 -5 0 -11 -4 -15
-9z"/>
<path d="M2462 3289 c2 -6 8 -10 13 -10 5 0 11 4 13 10 2 6 -4 11 -13 11 -9 0
-15 -5 -13 -11z"/>
<path d="M2602 3289 c2 -6 8 -10 13 -10 5 0 11 4 13 10 2 6 -4 11 -13 11 -9 0
-15 -5 -13 -11z"/>
<path d="M755 3151 c-7 -12 12 -24 25 -16 11 7 4 25 -10 25 -5 0 -11 -4 -15
-9z"/>
<path d="M900 3146 c0 -9 7 -16 16 -16 9 0 14 5 12 12 -6 18 -28 21 -28 4z"/>
<path d="M1042 3148 c6 -18 28 -21 28 -4 0 9 -7 16 -16 16 -9 0 -14 -5 -12
-12z"/>
<path d="M1185 3151 c-7 -12 12 -24 25 -16 11 7 4 25 -10 25 -5 0 -11 -4 -15
-9z"/>
<path d="M1325 3151 c-7 -12 12 -24 25 -16 11 7 4 25 -10 25 -5 0 -11 -4 -15
-9z"/>
<path d="M1465 3151 c-7 -12 12 -24 25 -16 11 7 4 25 -10 25 -5 0 -11 -4 -15
-9z"/>
<path d="M1610 3145 c0 -9 5 -15 11 -13 6 2 11 8 11 13 0 5 -5 11 -11 13 -6 2
-11 -4 -11 -13z"/>
<path d="M1750 3145 c0 -8 7 -15 15 -15 8 0 15 7 15 15 0 8 -7 15 -15 15 -8 0
-15 -7 -15 -15z"/>
<path d="M1897 3154 c-8 -8 1 -24 14 -24 5 0 9 7 9 15 0 15 -12 20 -23 9z"/>
<path d="M2035 3151 c-7 -12 12 -24 25 -16 11 7 4 25 -10 25 -5 0 -11 -4 -15
-9z"/>
<path d="M2175 3151 c-7 -12 12 -24 25 -16 11 7 4 25 -10 25 -5 0 -11 -4 -15
-9z"/>
<path d="M2315 3151 c-7 -12 12 -24 25 -16 11 7 4 25 -10 25 -5 0 -11 -4 -15
-9z"/>
<path d="M2460 3145 c0 -9 5 -15 11 -13 6 2 11 8 11 13 0 5 -5 11 -11 13 -6 2
-11 -4 -11 -13z"/>
<path d="M2607 3153 c-12 -11 -8 -23 8 -23 8 0 15 7 15 15 0 16 -12 20 -23 8z"/>
<path d="M755 3011 c-7 -12 12 -24 25 -16 11 7 4 25 -10 25 -5 0 -11 -4 -15
-9z"/>
<path d="M900 3006 c0 -9 7 -16 16 -16 9 0 14 5 12 12 -6 18 -28 21 -28 4z"/>
<path d="M1046 3012 c-3 -6 -1 -14 5 -17 15 -10 25 3 12 16 -7 7 -13 7 -17 1z"/>
<path d="M1185 3011 c-7 -12 12 -24 25 -16 11 7 4 25 -10 25 -5 0 -11 -4 -15
-9z"/>
<path d="M1325 3011 c-7 -12 12 -24 25 -16 11 7 4 25 -10 25 -5 0 -11 -4 -15
-9z"/>
<path d="M1465 3011 c-7 -12 12 -24 25 -16 11 7 4 25 -10 25 -5 0 -11 -4 -15
-9z"/>
<path d="M1897 3013 c-12 -11 -8 -23 8 -23 8 0 15 7 15 15 0 16 -12 20 -23 8z"/>
<path d="M2035 3011 c-7 -12 12 -24 25 -16 11 7 4 25 -10 25 -5 0 -11 -4 -15
-9z"/>
<path d="M2175 3011 c-7 -12 12 -24 25 -16 11 7 4 25 -10 25 -5 0 -11 -4 -15
-9z"/>
<path d="M2315 3011 c-7 -12 12 -24 25 -16 11 7 4 25 -10 25 -5 0 -11 -4 -15
-9z"/>
<path d="M2465 3009 c-10 -15 3 -25 16 -12 7 7 7 13 1 17 -6 3 -14 1 -17 -5z"/>
<path d="M2607 3013 c-12 -11 -8 -23 8 -23 8 0 15 7 15 15 0 16 -12 20 -23 8z"/>
<path d="M1640 2900 c-15 -16 -36 -30 -45 -30 -11 0 3 -19 39 -53 l56 -53 56
53 c36 34 50 53 39 53 -9 0 -30 14 -45 30 -15 17 -38 30 -50 30 -12 0 -35 -13
-50 -30z m80 0 c11 -11 20 -32 20 -47 l0 -26 -25 23 -25 23 -25 -23 -25 -23 0
26 c0 27 30 67 50 67 6 0 19 -9 30 -20z"/>
<path d="M765 2870 c-4 -6 -3 -16 3 -22 6 -6 12 -6 17 2 4 6 3 16 -3 22 -6 6
-12 6 -17 -2z"/>
<path d="M905 2870 c-4 -6 -3 -16 3 -22 6 -6 12 -6 17 2 4 6 3 16 -3 22 -6 6
-12 6 -17 -2z"/>
<path d="M1045 2870 c-4 -6 -3 -16 3 -22 6 -6 12 -6 17 2 4 6 3 16 -3 22 -6 6
-12 6 -17 -2z"/>
<path d="M1185 2870 c-4 -6 -3 -16 3 -22 6 -6 12 -6 17 2 4 6 3 16 -3 22 -6 6
-12 6 -17 -2z"/>
<path d="M1325 2871 c-7 -12 12 -24 25 -16 11 7 4 25 -10 25 -5 0 -11 -4 -15
-9z"/>
<path d="M2035 2870 c-11 -17 5 -32 21 -19 7 6 11 15 8 20 -7 12 -21 11 -29
-1z"/>
<path d="M2175 2871 c-7 -12 12 -24 25 -16 11 7 4 25 -10 25 -5 0 -11 -4 -15
-9z"/>
<path d="M2325 2870 c-4 -6 -3 -16 3 -22 6 -6 12 -6 17 2 4 6 3 16 -3 22 -6 6
-12 6 -17 -2z"/>
<path d="M2465 2870 c-4 -6 -3 -16 3 -22 6 -6 12 -6 17 2 4 6 3 16 -3 22 -6 6
-12 6 -17 -2z"/>
<path d="M2605 2870 c-4 -6 -3 -16 3 -22 6 -6 12 -6 17 2 4 6 3 16 -3 22 -6 6
-12 6 -17 -2z"/>
<path d="M765 2730 c-4 -6 -3 -16 3 -22 6 -6 12 -6 17 2 4 6 3 16 -3 22 -6 6
-12 6 -17 -2z"/>
<path d="M905 2730 c-4 -6 -3 -16 3 -22 6 -6 12 -6 17 2 4 6 3 16 -3 22 -6 6
-12 6 -17 -2z"/>
<path d="M1045 2730 c-4 -6 -3 -16 3 -22 6 -6 12 -6 17 2 4 6 3 16 -3 22 -6 6
-12 6 -17 -2z"/>
<path d="M1185 2730 c-4 -6 -3 -16 3 -22 6 -6 12 -6 17 2 4 6 3 16 -3 22 -6 6
-12 6 -17 -2z"/>
<path d="M2174 2729 c-10 -17 13 -36 27 -22 12 12 4 33 -11 33 -5 0 -12 -5
-16 -11z"/>
<path d="M2325 2730 c-4 -6 -3 -16 3 -22 6 -6 12 -6 17 2 4 6 3 16 -3 22 -6 6
-12 6 -17 -2z"/>
<path d="M2465 2730 c-4 -6 -3 -16 3 -22 6 -6 12 -6 17 2 4 6 3 16 -3 22 -6 6
-12 6 -17 -2z"/>
<path d="M2605 2730 c-4 -6 -3 -16 3 -22 6 -6 12 -6 17 2 4 6 3 16 -3 22 -6 6
-12 6 -17 -2z"/>
<path d="M1347 2453 c-21 -21 22 -33 51 -14 11 7 10 10 -3 15 -21 8 -40 8 -48
-1z"/>
<path d="M1982 2451 c-11 -6 -10 -9 3 -15 28 -10 57 -7 53 7 -6 15 -38 20 -56
8z"/>
<path d="M765 2590 c-4 -6 -3 -16 3 -22 6 -6 12 -6 17 2 4 6 3 16 -3 22 -6 6
-12 6 -17 -2z"/>
<path d="M905 2590 c-4 -6 -3 -16 3 -22 6 -6 12 -6 17 2 4 6 3 16 -3 22 -6 6
-12 6 -17 -2z"/>
<path d="M1045 2590 c-4 -6 -3 -16 3 -22 6 -6 12 -6 17 2 4 6 3 16 -3 22 -6 6
-12 6 -17 -2z"/>
<path d="M1185 2590 c-7 -12 2 -30 16 -30 12 0 12 27 0 35 -5 3 -12 1 -16 -5z"/>
<path d="M2175 2581 c-7 -12 12 -24 25 -16 11 7 4 25 -10 25 -5 0 -11 -4 -15
-9z"/>
<path d="M2324 2586 c-8 -22 3 -33 18 -18 9 9 9 15 0 24 -9 9 -13 7 -18 -6z"/>
<path d="M2465 2590 c-4 -6 -3 -16 3 -22 6 -6 12 -6 17 2 4 6 3 16 -3 22 -6 6
-12 6 -17 -2z"/>
<path d="M2605 2590 c-4 -6 -3 -16 3 -22 6 -6 12 -6 17 2 4 6 3 16 -3 22 -6 6
-12 6 -17 -2z"/>
<path d="M1640 2490 c0 -5 7 -10 16 -10 8 0 12 5 9 10 -3 6 -10 10 -16 10 -5
0 -9 -4 -9 -10z"/>
<path d="M1680 2490 c0 -6 -15 -19 -32 -30 -18 -11 -27 -20 -20 -20 7 0 24
-11 37 -25 l25 -24 25 24 c13 14 30 25 37 25 7 0 -2 9 -19 20 -18 11 -33 24
-33 30 0 5 -4 10 -10 10 -5 0 -10 -5 -10 -10z"/>
<path d="M1715 2490 c-3 -5 1 -10 9 -10 9 0 16 5 16 10 0 6 -4 10 -9 10 -6 0
-13 -4 -16 -10z"/>
<path d="M1640 2410 c0 -13 18 -22 24 -11 3 5 -1 11 -9 15 -8 3 -15 1 -15 -4z"/>
<path d="M1721 2411 c-8 -6 -9 -11 -3 -15 6 -3 14 -1 17 5 9 14 2 20 -14 10z"/>
<path d="M755 2441 c-3 -5 -1 -12 5 -16 12 -7 30 2 30 16 0 12 -27 12 -35 0z"/>
<path d="M900 2434 c0 -17 22 -14 28 4 2 7 -3 12 -12 12 -9 0 -16 -7 -16 -16z"/>
<path d="M1045 2441 c-6 -11 9 -23 19 -14 9 9 7 23 -3 23 -6 0 -12 -4 -16 -9z"/>
<path d="M1185 2441 c-7 -12 12 -24 25 -16 11 7 4 25 -10 25 -5 0 -11 -4 -15
-9z"/>
<path d="M2175 2441 c-7 -12 12 -24 25 -16 11 7 4 25 -10 25 -5 0 -11 -4 -15
-9z"/>
<path d="M2315 2441 c-7 -12 12 -24 25 -16 11 7 4 25 -10 25 -5 0 -11 -4 -15
-9z"/>
<path d="M2462 2441 c2 -7 7 -12 11 -12 12 1 9 15 -3 20 -7 2 -11 -2 -8 -8z"/>
<path d="M2602 2438 c6 -18 28 -21 28 -4 0 9 -7 16 -16 16 -9 0 -14 -5 -12
-12z"/>
<path d="M1631 2073 c-36 -36 -48 -53 -36 -53 9 0 30 -13 45 -30 15 -16 38
-30 50 -30 12 0 35 14 50 30 15 17 36 30 45 30 11 0 -4 20 -41 55 -32 30 -59
54 -59 53 0 -1 -24 -25 -54 -55z m84 -33 l25 23 0 -26 c0 -27 -30 -67 -50 -67
-20 0 -50 40 -50 67 l0 26 25 -23 25 -23 25 23z"/>
<path d="M755 2301 c-7 -12 12 -24 25 -16 11 7 4 25 -10 25 -5 0 -11 -4 -15
-9z"/>
<path d="M900 2295 c0 -9 5 -15 11 -13 6 2 11 8 11 13 0 5 -5 11 -11 13 -6 2
-11 -4 -11 -13z"/>
<path d="M1047 2304 c-8 -8 1 -24 14 -24 5 0 9 7 9 15 0 15 -12 20 -23 9z"/>
<path d="M1185 2301 c-7 -12 12 -24 25 -16 11 7 4 25 -10 25 -5 0 -11 -4 -15
-9z"/>
<path d="M2175 2301 c-7 -12 12 -24 25 -16 11 7 4 25 -10 25 -5 0 -11 -4 -15
-9z"/>
<path d="M2315 2301 c-7 -12 12 -24 25 -16 11 7 4 25 -10 25 -5 0 -11 -4 -15
-9z"/>
<path d="M2460 2296 c0 -9 7 -16 16 -16 17 0 14 22 -4 28 -7 2 -12 -3 -12 -12z"/>
<path d="M2607 2304 c-8 -8 1 -24 14 -24 5 0 9 7 9 15 0 15 -12 20 -23 9z"/>
<path d="M762 2156 c1 -10 8 -17 13 -17 15 1 12 24 -3 29 -9 3 -13 -2 -10 -12z"/>
<path d="M905 2160 c-4 -6 -3 -16 3 -22 6 -6 12 -6 17 2 4 6 3 16 -3 22 -6 6
-12 6 -17 -2z"/>
<path d="M1045 2160 c-4 -6 -3 -16 3 -22 6 -6 12 -6 17 2 4 6 3 16 -3 22 -6 6
-12 6 -17 -2z"/>
<path d="M1185 2160 c-11 -17 5 -32 21 -19 7 6 11 15 8 20 -7 12 -21 11 -29
-1z"/>
<path d="M2175 2161 c-7 -12 12 -24 25 -16 11 7 4 25 -10 25 -5 0 -11 -4 -15
-9z"/>
<path d="M2316 2161 c-3 -5 1 -14 8 -20 16 -13 32 2 21 19 -8 12 -22 13 -29 1z"/>
<path d="M2465 2160 c-4 -6 -3 -16 3 -22 6 -6 12 -6 17 2 4 6 3 16 -3 22 -6 6
-12 6 -17 -2z"/>
<path d="M2605 2160 c-4 -6 -3 -16 3 -22 6 -6 12 -6 17 2 4 6 3 16 -3 22 -6 6
-12 6 -17 -2z"/>
<path d="M765 2020 c-4 -6 -3 -16 3 -22 6 -6 12 -6 17 2 4 6 3 16 -3 22 -6 6
-12 6 -17 -2z"/>
<path d="M905 2020 c-4 -6 -3 -16 3 -22 6 -6 12 -6 17 2 4 6 3 16 -3 22 -6 6
-12 6 -17 -2z"/>
<path d="M1045 2020 c-4 -6 -3 -16 3 -22 6 -6 12 -6 17 2 4 6 3 16 -3 22 -6 6
-12 6 -17 -2z"/>
<path d="M1185 2020 c-8 -13 4 -32 16 -25 12 8 12 35 0 35 -6 0 -13 -4 -16
-10z"/>
<path d="M1325 2019 c-10 -15 1 -23 20 -15 9 3 13 10 10 16 -8 13 -22 13 -30
-1z"/>
<path d="M2036 2022 c-3 -6 -1 -14 5 -17 15 -10 25 3 12 16 -7 7 -13 7 -17 1z"/>
<path d="M2175 2020 c-3 -6 1 -13 10 -16 19 -8 30 0 20 15 -8 14 -22 14 -30 1z"/>
<path d="M2325 2020 c-4 -6 -3 -16 3 -22 6 -6 12 -6 17 2 4 6 3 16 -3 22 -6 6
-12 6 -17 -2z"/>
<path d="M2465 2020 c-4 -6 -3 -16 3 -22 6 -6 12 -6 17 2 4 6 3 16 -3 22 -6 6
-12 6 -17 -2z"/>
<path d="M2605 2020 c-4 -6 -3 -16 3 -22 6 -6 12 -6 17 2 4 6 3 16 -3 22 -6 6
-12 6 -17 -2z"/>
<path d="M765 1880 c-4 -6 -3 -16 3 -22 6 -6 12 -6 17 2 4 6 3 16 -3 22 -6 6
-12 6 -17 -2z"/>
<path d="M905 1880 c-4 -6 -3 -16 3 -22 6 -6 12 -6 17 2 4 6 3 16 -3 22 -6 6
-12 6 -17 -2z"/>
<path d="M1045 1880 c-4 -6 -3 -16 3 -22 6 -6 12 -6 17 2 4 6 3 16 -3 22 -6 6
-12 6 -17 -2z"/>
<path d="M1185 1880 c-4 -6 -3 -16 3 -22 6 -6 12 -6 17 2 4 6 3 16 -3 22 -6 6
-12 6 -17 -2z"/>
<path d="M1325 1871 c-7 -12 12 -24 25 -16 11 7 4 25 -10 25 -5 0 -11 -4 -15
-9z"/>
<path d="M1471 1876 c-9 -10 -9 -16 -1 -21 17 -10 37 12 24 25 -8 8 -15 6 -23
-4z"/>
<path d="M1895 1880 c-4 -6 -3 -16 3 -22 6 -6 12 -6 17 2 4 6 3 16 -3 22 -6 6
-12 6 -17 -2z"/>
<path d="M2035 1880 c-10 -17 12 -37 25 -24 8 8 6 15 -4 23 -10 9 -16 9 -21 1z"/>
<path d="M2175 1871 c-7 -12 12 -24 25 -16 11 7 4 25 -10 25 -5 0 -11 -4 -15
-9z"/>
<path d="M2325 1880 c-4 -6 -3 -16 3 -22 6 -6 12 -6 17 2 4 6 3 16 -3 22 -6 6
-12 6 -17 -2z"/>
<path d="M2465 1880 c-4 -6 -3 -16 3 -22 6 -6 12 -6 17 2 4 6 3 16 -3 22 -6 6
-12 6 -17 -2z"/>
<path d="M2605 1880 c-4 -6 -3 -16 3 -22 6 -6 12 -6 17 2 4 6 3 16 -3 22 -6 6
-12 6 -17 -2z"/>
<path d="M764 1736 c-8 -22 3 -33 18 -18 9 9 9 15 0 24 -9 9 -13 7 -18 -6z"/>
<path d="M905 1740 c-4 -6 -3 -16 3 -22 6 -6 12 -6 17 2 4 6 3 16 -3 22 -6 6
-12 6 -17 -2z"/>
<path d="M1045 1740 c-4 -6 -3 -16 3 -22 6 -6 12 -6 17 2 4 6 3 16 -3 22 -6 6
-12 6 -17 -2z"/>
<path d="M1185 1740 c-10 -17 12 -37 25 -24 8 8 6 15 -4 23 -10 9 -16 9 -21 1z"/>
<path d="M1325 1731 c-7 -12 12 -24 25 -16 11 7 4 25 -10 25 -5 0 -11 -4 -15
-9z"/>
<path d="M1471 1736 c-9 -10 -9 -16 -1 -21 16 -10 31 7 21 23 -6 10 -10 10
-20 -2z"/>
<path d="M1614 1736 c-8 -22 3 -33 18 -18 9 9 9 15 0 24 -9 9 -13 7 -18 -6z"/>
<path d="M1755 1740 c-4 -6 -3 -16 3 -22 6 -6 12 -6 17 2 4 6 3 16 -3 22 -6 6
-12 6 -17 -2z"/>
<path d="M1895 1740 c-7 -12 2 -30 16 -30 12 0 12 27 0 35 -5 3 -12 1 -16 -5z"/>
<path d="M2035 1740 c-10 -17 12 -37 25 -24 8 8 6 15 -4 23 -10 9 -16 9 -21 1z"/>
<path d="M2175 1731 c-7 -12 12 -24 25 -16 11 7 4 25 -10 25 -5 0 -11 -4 -15
-9z"/>
<path d="M2321 1736 c-9 -10 -9 -16 -1 -21 17 -10 37 12 24 25 -8 8 -15 6 -23
-4z"/>
<path d="M2465 1740 c-4 -6 -3 -16 3 -22 6 -6 12 -6 17 2 4 6 3 16 -3 22 -6 6
-12 6 -17 -2z"/>
<path d="M2605 1740 c-4 -6 -3 -16 3 -22 6 -6 12 -6 17 2 4 6 3 16 -3 22 -6 6
-12 6 -17 -2z"/>
<path d="M755 1591 c-7 -12 12 -24 25 -16 11 7 4 25 -10 25 -5 0 -11 -4 -15
-9z"/>
<path d="M900 1584 c0 -17 22 -14 28 4 2 7 -3 12 -12 12 -9 0 -16 -7 -16 -16z"/>
<path d="M1047 1594 c-8 -8 1 -24 14 -24 5 0 9 7 9 15 0 15 -12 20 -23 9z"/>
<path d="M1185 1591 c-7 -12 12 -24 25 -16 11 7 4 25 -10 25 -5 0 -11 -4 -15
-9z"/>
<path d="M1325 1591 c-7 -12 12 -24 25 -16 11 7 4 25 -10 25 -5 0 -11 -4 -15
-9z"/>
<path d="M1465 1591 c-7 -12 12 -24 25 -16 11 7 4 25 -10 25 -5 0 -11 -4 -15
-9z"/>
<path d="M1610 1585 c0 -9 5 -15 11 -13 6 2 11 8 11 13 0 5 -5 11 -11 13 -6 2
-11 -4 -11 -13z"/>
<path d="M1752 1589 c2 -6 8 -10 13 -10 5 0 11 4 13 10 2 6 -4 11 -13 11 -9 0
-15 -5 -13 -11z"/>
<path d="M1897 1594 c-8 -8 1 -24 14 -24 5 0 9 7 9 15 0 15 -12 20 -23 9z"/>
<path d="M2035 1591 c-7 -12 12 -24 25 -16 11 7 4 25 -10 25 -5 0 -11 -4 -15
-9z"/>
<path d="M2175 1591 c-7 -12 12 -24 25 -16 11 7 4 25 -10 25 -5 0 -11 -4 -15
-9z"/>
<path d="M2315 1591 c-7 -12 12 -24 25 -16 11 7 4 25 -10 25 -5 0 -11 -4 -15
-9z"/>
<path d="M2460 1585 c0 -9 5 -15 11 -13 6 2 11 8 11 13 0 5 -5 11 -11 13 -6 2
-11 -4 -11 -13z"/>
<path d="M2602 1588 c6 -18 28 -21 28 -4 0 9 -7 16 -16 16 -9 0 -14 -5 -12
-12z"/>
<path d="M760 1445 c0 -9 5 -15 11 -13 6 2 11 8 11 13 0 5 -5 11 -11 13 -6 2
-11 -4 -11 -13z"/>
<path d="M905 1449 c-10 -15 3 -25 16 -12 7 7 7 13 1 17 -6 3 -14 1 -17 -5z"/>
<path d="M1047 1453 c-12 -11 -8 -23 8 -23 8 0 15 7 15 15 0 16 -12 20 -23 8z"/>
<path d="M1185 1451 c-7 -12 12 -24 25 -16 11 7 4 25 -10 25 -5 0 -11 -4 -15
-9z"/>
<path d="M1325 1451 c-7 -12 12 -24 25 -16 11 7 4 25 -10 25 -5 0 -11 -4 -15
-9z"/>
<path d="M1465 1451 c-7 -12 12 -24 25 -16 11 7 4 25 -10 25 -5 0 -11 -4 -15
-9z"/>
<path d="M1615 1449 c-10 -15 3 -25 16 -12 7 7 7 13 1 17 -6 3 -14 1 -17 -5z"/>
<path d="M1756 1453 c-11 -11 -6 -23 9 -23 8 0 15 4 15 9 0 13 -16 22 -24 14z"/>
<path d="M1897 1454 c-8 -8 1 -24 14 -24 5 0 9 7 9 15 0 15 -12 20 -23 9z"/>
<path d="M2035 1451 c-7 -12 12 -24 25 -16 11 7 4 25 -10 25 -5 0 -11 -4 -15
-9z"/>
<path d="M2175 1451 c-7 -12 12 -24 25 -16 11 7 4 25 -10 25 -5 0 -11 -4 -15
-9z"/>
<path d="M2315 1451 c-7 -12 12 -24 25 -16 11 7 4 25 -10 25 -5 0 -11 -4 -15
-9z"/>
<path d="M2460 1446 c0 -9 7 -16 16 -16 17 0 14 22 -4 28 -7 2 -12 -3 -12 -12z"/>
<path d="M2606 1452 c-3 -6 -1 -14 5 -17 15 -10 25 3 12 16 -7 7 -13 7 -17 1z"/>
<path d="M765 1310 c-4 -6 -3 -16 3 -22 6 -6 12 -6 17 2 4 6 3 16 -3 22 -6 6
-12 6 -17 -2z"/>
<path d="M905 1310 c-4 -6 -3 -16 3 -22 6 -6 12 -6 17 2 4 6 3 16 -3 22 -6 6
-12 6 -17 -2z"/>
<path d="M1045 1310 c-4 -6 -3 -16 3 -22 6 -6 12 -6 17 2 4 6 3 16 -3 22 -6 6
-12 6 -17 -2z"/>
<path d="M1185 1310 c-8 -13 4 -32 16 -25 12 8 12 35 0 35 -6 0 -13 -4 -16
-10z"/>
<path d="M1325 1311 c-7 -12 12 -24 25 -16 11 7 4 25 -10 25 -5 0 -11 -4 -15
-9z"/>
<path d="M1465 1311 c-7 -12 12 -24 25 -16 11 7 4 25 -10 25 -5 0 -11 -4 -15
-9z"/>
<path d="M1615 1310 c-4 -6 -3 -16 3 -22 6 -6 12 -6 17 2 4 6 3 16 -3 22 -6 6
-12 6 -17 -2z"/>
<path d="M1755 1310 c-4 -6 -3 -16 3 -22 6 -6 12 -6 17 2 4 6 3 16 -3 22 -6 6
-12 6 -17 -2z"/>
<path d="M1895 1310 c-4 -6 -3 -16 3 -22 6 -6 12 -6 17 2 4 6 3 16 -3 22 -6 6
-12 6 -17 -2z"/>
<path d="M2035 1311 c-7 -12 12 -24 25 -16 11 7 4 25 -10 25 -5 0 -11 -4 -15
-9z"/>
<path d="M2175 1311 c-7 -12 12 -24 25 -16 11 7 4 25 -10 25 -5 0 -11 -4 -15
-9z"/>
<path d="M2325 1310 c-4 -6 -3 -16 3 -22 6 -6 12 -6 17 2 4 6 3 16 -3 22 -6 6
-12 6 -17 -2z"/>
<path d="M2465 1310 c-4 -6 -3 -16 3 -22 6 -6 12 -6 17 2 4 6 3 16 -3 22 -6 6
-12 6 -17 -2z"/>
<path d="M2605 1310 c-4 -6 -3 -16 3 -22 6 -6 12 -6 17 2 4 6 3 16 -3 22 -6 6
-12 6 -17 -2z"/>
<path d="M765 1170 c-4 -6 -3 -16 3 -22 6 -6 12 -6 17 2 4 6 3 16 -3 22 -6 6
-12 6 -17 -2z"/>
<path d="M905 1170 c-4 -6 -3 -16 3 -22 6 -6 12 -6 17 2 4 6 3 16 -3 22 -6 6
-12 6 -17 -2z"/>
<path d="M1045 1170 c-4 -6 -3 -16 3 -22 6 -6 12 -6 17 2 4 6 3 16 -3 22 -6 6
-12 6 -17 -2z"/>
<path d="M1185 1170 c-4 -6 -3 -16 3 -22 6 -6 12 -6 17 2 4 6 3 16 -3 22 -6 6
-12 6 -17 -2z"/>
<path d="M1324 1169 c-10 -17 13 -36 27 -22 12 12 4 33 -11 33 -5 0 -12 -5
-16 -11z"/>
<path d="M1475 1170 c-4 -6 -3 -16 3 -22 6 -6 12 -6 17 2 4 6 3 16 -3 22 -6 6
-12 6 -17 -2z"/>
<path d="M1615 1170 c-4 -6 -3 -16 3 -22 6 -6 12 -6 17 2 4 6 3 16 -3 22 -6 6
-12 6 -17 -2z"/>
<path d="M1755 1170 c-4 -6 -3 -16 3 -22 6 -6 12 -6 17 2 4 6 3 16 -3 22 -6 6
-12 6 -17 -2z"/>
<path d="M1895 1170 c-4 -6 -3 -16 3 -22 6 -6 12 -6 17 2 4 6 3 16 -3 22 -6 6
-12 6 -17 -2z"/>
<path d="M2035 1170 c-7 -12 2 -30 16 -30 12 0 12 27 0 35 -5 3 -12 1 -16 -5z"/>
<path d="M2174 1169 c-10 -17 13 -36 27 -22 12 12 4 33 -11 33 -5 0 -12 -5
-16 -11z"/>
<path d="M2325 1170 c-4 -6 -3 -16 3 -22 6 -6 12 -6 17 2 4 6 3 16 -3 22 -6 6
-12 6 -17 -2z"/>
<path d="M2465 1170 c-4 -6 -3 -16 3 -22 6 -6 12 -6 17 2 4 6 3 16 -3 22 -6 6
-12 6 -17 -2z"/>
<path d="M2605 1170 c-4 -6 -3 -16 3 -22 6 -6 12 -6 17 2 4 6 3 16 -3 22 -6 6
-12 6 -17 -2z"/>
<path d="M905 909 c11 -6 28 -21 38 -33 l18 -21 -7 25 c-8 31 -4 27 -39 35
-26 6 -28 5 -10 -6z"/>
<path d="M905 1030 c-4 -6 -3 -16 3 -22 6 -6 12 -6 17 2 4 6 3 16 -3 22 -6 6
-12 6 -17 -2z"/>
<path d="M1045 1030 c-4 -6 -3 -16 3 -22 6 -6 12 -6 17 2 4 6 3 16 -3 22 -6 6
-12 6 -17 -2z"/>
<path d="M1185 1030 c-4 -6 -3 -16 3 -22 6 -6 12 -6 17 2 4 6 3 16 -3 22 -6 6
-12 6 -17 -2z"/>
<path d="M1325 1021 c-7 -12 12 -24 25 -16 11 7 4 25 -10 25 -5 0 -11 -4 -15
-9z"/>
<path d="M1471 1026 c-9 -10 -9 -16 -1 -21 17 -10 37 12 24 25 -8 8 -15 6 -23
-4z"/>
<path d="M1615 1030 c-4 -6 -3 -16 3 -22 6 -6 12 -6 17 2 4 6 3 16 -3 22 -6 6
-12 6 -17 -2z"/>
<path d="M1755 1030 c-4 -6 -3 -16 3 -22 6 -6 12 -6 17 2 4 6 3 16 -3 22 -6 6
-12 6 -17 -2z"/>
<path d="M1895 1030 c-4 -6 -3 -16 3 -22 6 -6 12 -6 17 2 4 6 3 16 -3 22 -6 6
-12 6 -17 -2z"/>
<path d="M2035 1030 c-10 -17 12 -37 25 -24 8 8 6 15 -4 23 -10 9 -16 9 -21 1z"/>
<path d="M2175 1021 c-7 -12 12 -24 25 -16 11 7 4 25 -10 25 -5 0 -11 -4 -15
-9z"/>
<path d="M2325 1030 c-4 -6 -3 -16 3 -22 6 -6 12 -6 17 2 4 6 3 16 -3 22 -6 6
-12 6 -17 -2z"/>
<path d="M2465 1030 c-4 -6 -3 -16 3 -22 6 -6 12 -6 17 2 4 6 3 16 -3 22 -6 6
-12 6 -17 -2z"/>
<path d="M2473 913 c-17 -3 -23 -11 -23 -31 1 -23 2 -24 11 -10 5 10 19 24 32
33 22 15 20 16 -20 8z"/>
<path d="M1045 881 c-6 -11 9 -23 19 -14 9 9 7 23 -3 23 -6 0 -12 -4 -16 -9z"/>
<path d="M1185 881 c-7 -12 12 -24 25 -16 11 7 4 25 -10 25 -5 0 -11 -4 -15
-9z"/>
<path d="M1325 881 c-7 -12 12 -24 25 -16 11 7 4 25 -10 25 -5 0 -11 -4 -15
-9z"/>
<path d="M1465 881 c-7 -12 12 -24 25 -16 11 7 4 25 -10 25 -5 0 -11 -4 -15
-9z"/>
<path d="M1610 874 c0 -17 22 -14 28 4 2 7 -3 12 -12 12 -9 0 -16 -7 -16 -16z"/>
<path d="M1752 879 c2 -6 8 -10 13 -10 5 0 11 4 13 10 2 6 -4 11 -13 11 -9 0
-15 -5 -13 -11z"/>
<path d="M1892 878 c6 -18 28 -21 28 -4 0 9 -7 16 -16 16 -9 0 -14 -5 -12 -12z"/>
<path d="M2035 881 c-7 -12 12 -24 25 -16 11 7 4 25 -10 25 -5 0 -11 -4 -15
-9z"/>
<path d="M2175 881 c-7 -12 12 -24 25 -16 11 7 4 25 -10 25 -5 0 -11 -4 -15
-9z"/>
<path d="M2315 881 c-7 -12 12 -24 25 -16 11 7 4 25 -10 25 -5 0 -11 -4 -15
-9z"/>
<path d="M1185 741 c-7 -12 12 -24 25 -16 11 7 4 25 -10 25 -5 0 -11 -4 -15
-9z"/>
<path d="M1325 741 c-7 -12 12 -24 25 -16 11 7 4 25 -10 25 -5 0 -11 -4 -15
-9z"/>
<path d="M1465 741 c-7 -12 12 -24 25 -16 11 7 4 25 -10 25 -5 0 -11 -4 -15
-9z"/>
<path d="M1610 735 c0 -9 5 -15 11 -13 6 2 11 8 11 13 0 5 -5 11 -11 13 -6 2
-11 -4 -11 -13z"/>
<path d="M1750 735 c0 -8 7 -15 15 -15 8 0 15 7 15 15 0 8 -7 15 -15 15 -8 0
-15 -7 -15 -15z"/>
<path d="M1897 744 c-8 -8 1 -24 14 -24 5 0 9 7 9 15 0 15 -12 20 -23 9z"/>
<path d="M2035 741 c-7 -12 12 -24 25 -16 11 7 4 25 -10 25 -5 0 -11 -4 -15
-9z"/>
<path d="M2175 741 c-7 -12 12 -24 25 -16 11 7 4 25 -10 25 -5 0 -11 -4 -15
-9z"/>
<path d="M376 3798 c3 -5 10 -6 15 -3 13 9 11 12 -6 12 -8 0 -12 -4 -9 -9z"/>
<path d="M2985 3270 c-4 -6 -11 -7 -17 -4 -7 4 -8 2 -4 -5 6 -8 12 -9 20 -2 7
6 17 7 21 3 5 -4 5 -1 1 6 -9 15 -13 15 -21 2z"/>
<path d="M395 2720 c-4 -6 -11 -7 -17 -4 -7 4 -8 2 -4 -5 6 -8 12 -9 20 -2 7
6 17 7 21 3 5 -4 5 -1 1 6 -9 15 -13 15 -21 2z"/>
<path d="M376 2168 c3 -5 10 -6 15 -3 13 9 11 12 -6 12 -8 0 -12 -4 -9 -9z"/>
<path d="M2985 1640 c-4 -6 -11 -7 -17 -4 -7 4 -8 2 -4 -5 6 -8 12 -9 20 -2 7
6 17 7 21 3 5 -4 5 -1 1 6 -9 15 -13 15 -21 2z"/>
<path d="M395 1090 c-4 -6 -11 -7 -17 -4 -7 4 -8 2 -4 -5 6 -8 12 -9 20 -2 7
6 17 7 21 3 5 -4 5 -1 1 6 -9 15 -13 15 -21 2z"/>
<path d="M373 453 c-7 -2 -13 -16 -13 -30 l0 -25 29 24 c37 30 27 49 -16 31z"/>
<path d="M396 414 c-19 -19 -21 -44 -3 -44 19 0 37 21 37 42 0 22 -13 23 -34
2z"/>
<path d="M440 401 c0 -11 -8 -25 -17 -30 -15 -9 -16 -12 -4 -20 24 -16 53 6
49 36 -4 32 -28 44 -28 14z"/>
<path d="M2963 454 c-21 -9 -15 -21 12 -28 14 -4 25 -11 25 -16 0 -6 5 -10 11
-10 6 0 9 12 7 28 -3 27 -26 38 -55 26z"/>
<path d="M2940 414 c0 -18 24 -44 40 -44 23 0 24 4 10 31 -10 17 -50 28 -50
13z"/>
<path d="M3010 379 c0 -5 5 -7 10 -4 6 3 10 8 10 11 0 2 -4 4 -10 4 -5 0 -10
-5 -10 -11z"/>
<path d="M1135 391 c-3 -5 -1 -12 5 -16 6 -4 7 -11 4 -17 -4 -7 -2 -8 5 -4 8
6 9 12 2 20 -6 7 -8 16 -4 19 3 4 4 7 0 7 -3 0 -8 -4 -12 -9z"/>
<path d="M2227 393 c-3 -5 -1 -17 4 -28 6 -17 7 -16 6 8 -1 28 -3 32 -10 20z"/>
</g>
</svg>
